<svg xmlns="http://www.w3.org/2000/svg" xmlns:xlink="http://www.w3.org/1999/xlink" width="400" zoomAndPan="magnify" viewBox="0 0 300 299.999988" height="400" preserveAspectRatio="xMidYMid meet" version="1.0"><defs><g/><clipPath id="dbacdf5c3d"><path d="M 30 26.542969 L 274.273438 26.542969 L 274.273438 273.679688 L 30 273.679688 Z M 30 26.542969 " clip-rule="nonzero"/></clipPath><clipPath id="ad486e3f29"><path d="M 41.25 26.542969 L 263.023438 26.542969 C 269.234375 26.542969 274.273438 31.582031 274.273438 37.792969 L 274.273438 262.207031 C 274.273438 268.417969 269.234375 273.457031 263.023438 273.457031 L 41.25 273.457031 C 35.035156 273.457031 30 268.417969 30 262.207031 L 30 37.792969 C 30 31.582031 35.035156 26.542969 41.25 26.542969 Z M 41.25 26.542969 " clip-rule="nonzero"/></clipPath><clipPath id="a7b4d5376c"><path d="M 46 184.914062 L 169.71875 184.914062 L 169.71875 220.542969 L 46 220.542969 Z M 46 184.914062 " clip-rule="nonzero"/></clipPath><clipPath id="cb106891ac"><path d="M 181.023438 150 L 258.472656 150 L 258.472656 227.449219 L 181.023438 227.449219 Z M 181.023438 150 " clip-rule="nonzero"/></clipPath></defs><rect x="-30" width="360" fill="#ffffff" y="-29.999999" height="359.999986" fill-opacity="1"/><rect x="-30" width="360" fill="#ffffff" y="-29.999999" height="359.999986" fill-opacity="1"/><g clip-path="url(#dbacdf5c3d)"><g clip-path="url(#ad486e3f29)"><path fill="#40b669" d="M 30 26.542969 L 274.273438 26.542969 L 274.273438 273.679688 L 30 273.679688 Z M 30 26.542969 " fill-opacity="1" fill-rule="nonzero"/></g></g><g clip-path="url(#a7b4d5376c)"><path fill="#222222" d="M 46.8125 212.695312 L 46.8125 199.003906 L 63.972656 199.003906 L 63.972656 198.203125 L 46.8125 198.203125 L 46.8125 185.714844 L 65.058594 185.714844 L 65.058594 184.914062 L 46.007812 184.914062 L 46.007812 213.492188 L 65.21875 213.492188 L 65.21875 212.695312 Z M 80.691406 192.917969 L 73.578125 202.246094 L 66.625 192.917969 L 65.582031 192.917969 L 73.097656 202.847656 L 64.855469 213.492188 L 65.820312 213.492188 L 73.578125 203.445312 L 81.375 213.492188 L 82.378906 213.492188 L 74.101562 202.847656 L 81.65625 192.917969 Z M 84.789062 220.539062 L 84.789062 207.730469 L 84.871094 207.730469 C 85.351562 209.597656 86.304688 211.097656 87.722656 212.234375 C 89.144531 213.367188 90.953125 213.933594 93.152344 213.933594 C 94.570312 213.933594 95.828125 213.648438 96.929688 213.074219 C 98.027344 212.5 98.945312 211.71875 99.679688 210.734375 C 100.417969 209.746094 100.980469 208.597656 101.371094 207.289062 C 101.757812 205.984375 101.949219 204.609375 101.949219 203.167969 C 101.949219 201.621094 101.75 200.191406 101.351562 198.882812 C 100.949219 197.578125 100.363281 196.441406 99.601562 195.480469 C 98.835938 194.523438 97.914062 193.773438 96.828125 193.242188 C 95.742188 192.707031 94.515625 192.441406 93.152344 192.441406 C 92.105469 192.441406 91.132812 192.59375 90.238281 192.902344 C 89.339844 193.207031 88.542969 193.640625 87.84375 194.203125 C 87.148438 194.761719 86.546875 195.421875 86.039062 196.183594 C 85.527344 196.941406 85.136719 197.777344 84.871094 198.683594 L 84.789062 198.683594 L 84.789062 192.921875 L 83.988281 192.921875 L 83.988281 220.539062 Z M 93.152344 213.175781 C 90.632812 213.175781 88.609375 212.3125 87.082031 210.59375 C 85.554688 208.871094 84.789062 206.394531 84.789062 203.167969 C 84.789062 201.832031 84.980469 200.566406 85.351562 199.363281 C 85.730469 198.164062 86.273438 197.109375 86.980469 196.203125 C 87.691406 195.296875 88.566406 194.574219 89.613281 194.042969 C 90.660156 193.507812 91.835938 193.242188 93.152344 193.242188 C 94.488281 193.242188 95.664062 193.507812 96.664062 194.042969 C 97.671875 194.574219 98.5 195.300781 99.15625 196.222656 C 99.816406 197.144531 100.3125 198.199219 100.644531 199.382812 C 100.980469 200.570312 101.148438 201.832031 101.148438 203.167969 C 101.148438 204.367188 100.992188 205.5625 100.6875 206.75 C 100.378906 207.9375 99.902344 209.003906 99.257812 209.953125 C 98.617188 210.898438 97.792969 211.671875 96.785156 212.273438 C 95.78125 212.875 94.570312 213.175781 93.152344 213.175781 Z M 106.371094 213.492188 L 106.371094 201.847656 C 106.371094 200.726562 106.535156 199.632812 106.855469 198.5625 C 107.175781 197.496094 107.671875 196.554688 108.34375 195.742188 C 109.011719 194.929688 109.863281 194.289062 110.894531 193.820312 C 111.925781 193.355469 113.152344 193.160156 114.570312 193.242188 L 114.570312 192.441406 C 113.339844 192.414062 112.261719 192.546875 111.335938 192.839844 C 110.414062 193.132812 109.613281 193.535156 108.945312 194.042969 C 108.277344 194.546875 107.738281 195.140625 107.335938 195.824219 C 106.933594 196.503906 106.640625 197.230469 106.453125 198.003906 L 106.371094 198.003906 L 106.371094 192.921875 L 105.570312 192.921875 L 105.570312 213.492188 Z M 115.578125 203.367188 L 132.859375 203.367188 C 132.910156 201.953125 132.769531 200.59375 132.4375 199.285156 C 132.101562 197.976562 131.566406 196.816406 130.828125 195.800781 C 130.089844 194.789062 129.140625 193.972656 127.976562 193.359375 C 126.808594 192.746094 125.421875 192.441406 123.816406 192.441406 C 122.664062 192.441406 121.539062 192.679688 120.441406 193.160156 C 119.339844 193.640625 118.375 194.339844 117.546875 195.261719 C 116.714844 196.183594 116.046875 197.308594 115.535156 198.644531 C 115.027344 199.980469 114.773438 201.5 114.773438 203.207031 C 114.773438 204.726562 114.949219 206.148438 115.296875 207.46875 C 115.640625 208.789062 116.179688 209.9375 116.902344 210.910156 C 117.625 211.886719 118.554688 212.640625 119.695312 213.175781 C 120.832031 213.707031 122.207031 213.960938 123.816406 213.933594 C 126.175781 213.933594 128.15625 213.273438 129.761719 211.953125 C 131.371094 210.632812 132.324219 208.769531 132.617188 206.371094 L 131.8125 206.371094 C 131.464844 208.636719 130.574219 210.339844 129.140625 211.472656 C 127.707031 212.605469 125.90625 213.175781 123.734375 213.175781 C 122.261719 213.175781 121.015625 212.917969 119.996094 212.414062 C 118.976562 211.90625 118.148438 211.210938 117.503906 210.332031 C 116.863281 209.449219 116.386719 208.417969 116.078125 207.230469 C 115.769531 206.042969 115.605469 204.753906 115.578125 203.367188 Z M 132.054688 202.566406 L 115.578125 202.566406 C 115.65625 201.125 115.925781 199.832031 116.378906 198.683594 C 116.835938 197.535156 117.433594 196.554688 118.167969 195.742188 C 118.90625 194.929688 119.761719 194.308594 120.742188 193.882812 C 121.71875 193.453125 122.769531 193.242188 123.894531 193.242188 C 125.234375 193.242188 126.414062 193.488281 127.433594 193.980469 C 128.449219 194.476562 129.300781 195.148438 129.984375 196.003906 C 130.667969 196.855469 131.183594 197.851562 131.53125 198.984375 C 131.882812 200.117188 132.054688 201.3125 132.054688 202.566406 Z M 149.535156 199.003906 L 150.339844 199.003906 C 150.339844 196.710938 149.671875 195.042969 148.332031 194 C 146.992188 192.960938 145.167969 192.441406 142.867188 192.441406 C 141.578125 192.441406 140.496094 192.601562 139.609375 192.921875 C 138.722656 193.242188 138.003906 193.65625 137.4375 194.160156 C 136.875 194.667969 136.472656 195.230469 136.234375 195.84375 C 135.992188 196.457031 135.875 197.042969 135.875 197.605469 C 135.875 198.722656 136.074219 199.617188 136.472656 200.285156 C 136.875 200.953125 137.507812 201.472656 138.363281 201.847656 C 138.953125 202.113281 139.625 202.351562 140.375 202.566406 C 141.125 202.78125 141.996094 203.007812 142.988281 203.246094 C 143.871094 203.460938 144.742188 203.675781 145.597656 203.886719 C 146.457031 204.101562 147.210938 204.386719 147.867188 204.75 C 148.523438 205.109375 149.058594 205.570312 149.476562 206.128906 C 149.894531 206.691406 150.101562 207.421875 150.101562 208.332031 C 150.101562 209.210938 149.894531 209.957031 149.476562 210.574219 C 149.058594 211.183594 148.53125 211.6875 147.886719 212.074219 C 147.246094 212.460938 146.53125 212.738281 145.738281 212.914062 C 144.949219 213.085938 144.179688 213.175781 143.429688 213.175781 C 140.988281 213.175781 139.121094 212.632812 137.820312 211.554688 C 136.523438 210.472656 135.875 208.769531 135.875 206.449219 L 135.066406 206.449219 C 135.066406 209.039062 135.773438 210.933594 137.179688 212.132812 C 138.585938 213.332031 140.667969 213.933594 143.429688 213.933594 C 144.3125 213.933594 145.203125 213.835938 146.101562 213.632812 C 147 213.433594 147.800781 213.105469 148.511719 212.652344 C 149.222656 212.199219 149.796875 211.613281 150.238281 210.890625 C 150.679688 210.171875 150.902344 209.292969 150.902344 208.25 C 150.902344 207.261719 150.707031 206.460938 150.320312 205.847656 C 149.929688 205.234375 149.421875 204.726562 148.792969 204.328125 C 148.164062 203.929688 147.453125 203.613281 146.664062 203.386719 C 145.871094 203.160156 145.074219 202.941406 144.273438 202.726562 C 143.144531 202.433594 142.160156 202.179688 141.316406 201.964844 C 140.472656 201.753906 139.6875 201.5 138.964844 201.207031 C 138.269531 200.914062 137.714844 200.492188 137.296875 199.945312 C 136.882812 199.398438 136.675781 198.617188 136.675781 197.605469 C 136.675781 197.417969 136.730469 197.082031 136.835938 196.601562 C 136.945312 196.121094 137.199219 195.636719 137.601562 195.140625 C 138.003906 194.648438 138.617188 194.207031 139.449219 193.820312 C 140.28125 193.433594 141.417969 193.242188 142.867188 193.242188 C 143.859375 193.242188 144.757812 193.347656 145.578125 193.5625 C 146.394531 193.773438 147.097656 194.113281 147.6875 194.582031 C 148.277344 195.046875 148.734375 195.640625 149.054688 196.363281 C 149.375 197.082031 149.535156 197.964844 149.535156 199.003906 Z M 168.144531 199.003906 L 168.949219 199.003906 C 168.949219 196.710938 168.277344 195.042969 166.941406 194 C 165.597656 192.960938 163.777344 192.441406 161.472656 192.441406 C 160.1875 192.441406 159.101562 192.601562 158.21875 192.921875 C 157.335938 193.242188 156.609375 193.65625 156.046875 194.160156 C 155.484375 194.667969 155.082031 195.230469 154.84375 195.84375 C 154.601562 196.457031 154.480469 197.042969 154.480469 197.605469 C 154.480469 198.722656 154.679688 199.617188 155.082031 200.285156 C 155.484375 200.953125 156.113281 201.472656 156.972656 201.847656 C 157.5625 202.113281 158.230469 202.351562 158.980469 202.566406 C 159.730469 202.78125 160.601562 203.007812 161.59375 203.246094 C 162.476562 203.460938 163.347656 203.675781 164.207031 203.886719 C 165.0625 204.101562 165.820312 204.386719 166.476562 204.75 C 167.132812 205.109375 167.667969 205.570312 168.085938 206.128906 C 168.5 206.691406 168.707031 207.421875 168.707031 208.332031 C 168.707031 209.210938 168.5 209.957031 168.085938 210.574219 C 167.667969 211.183594 167.140625 211.6875 166.496094 212.074219 C 165.855469 212.460938 165.136719 212.738281 164.347656 212.914062 C 163.554688 213.085938 162.785156 213.175781 162.035156 213.175781 C 159.597656 213.175781 157.726562 212.632812 156.429688 211.554688 C 155.128906 210.472656 154.480469 208.769531 154.480469 206.449219 L 153.675781 206.449219 C 153.675781 209.039062 154.378906 210.933594 155.785156 212.132812 C 157.191406 213.332031 159.277344 213.933594 162.035156 213.933594 C 162.921875 213.933594 163.8125 213.835938 164.707031 213.632812 C 165.605469 213.433594 166.410156 213.105469 167.121094 212.652344 C 167.828125 212.199219 168.40625 211.613281 168.847656 210.890625 C 169.289062 210.171875 169.511719 209.292969 169.511719 208.25 C 169.511719 207.261719 169.316406 206.460938 168.925781 205.847656 C 168.539062 205.234375 168.03125 204.726562 167.398438 204.328125 C 166.769531 203.929688 166.0625 203.613281 165.269531 203.386719 C 164.480469 203.160156 163.683594 202.941406 162.878906 202.726562 C 161.753906 202.433594 160.769531 202.179688 159.925781 201.964844 C 159.082031 201.753906 158.300781 201.5 157.574219 201.207031 C 156.878906 200.914062 156.320312 200.492188 155.90625 199.945312 C 155.492188 199.398438 155.285156 198.617188 155.285156 197.605469 C 155.285156 197.417969 155.335938 197.082031 155.445312 196.601562 C 155.550781 196.121094 155.808594 195.636719 156.207031 195.140625 C 156.609375 194.648438 157.226562 194.207031 158.058594 193.820312 C 158.886719 193.433594 160.027344 193.242188 161.472656 193.242188 C 162.464844 193.242188 163.371094 193.347656 164.183594 193.5625 C 165.003906 193.773438 165.707031 194.113281 166.296875 194.582031 C 166.882812 195.046875 167.339844 195.640625 167.664062 196.363281 C 167.984375 197.082031 168.144531 197.964844 168.144531 199.003906 Z M 168.144531 199.003906 " fill-opacity="1" fill-rule="nonzero"/></g><g clip-path="url(#cb106891ac)"><path fill="#ffd600" d="M 181.023438 150 L 258.472656 150 L 258.472656 227.449219 L 181.023438 227.449219 Z M 181.023438 150 " fill-opacity="1" fill-rule="nonzero"/></g><path fill="#000001" d="M 231.664062 207.972656 C 233.152344 210.390625 234.769531 212.710938 238.195312 212.710938 C 241.074219 212.710938 242.585938 211.277344 242.585938 209.300781 C 242.585938 206.929688 241.023438 206.089844 237.855469 204.710938 L 236.121094 203.96875 C 231.109375 201.84375 227.777344 199.179688 227.777344 193.554688 C 227.777344 188.371094 231.746094 184.425781 237.949219 184.425781 C 242.367188 184.425781 245.539062 185.953125 247.828125 189.960938 L 242.417969 193.417969 C 241.230469 191.292969 239.941406 190.453125 237.949219 190.453125 C 235.914062 190.453125 234.625 191.738281 234.625 193.417969 C 234.625 195.492188 235.914062 196.332031 238.894531 197.613281 L 240.632812 198.355469 C 246.539062 200.871094 249.867188 203.4375 249.867188 209.214844 C 249.867188 215.433594 244.953125 218.84375 238.359375 218.84375 C 231.90625 218.84375 228.242188 215.605469 226.203125 211.597656 Z M 206.738281 208.148438 C 207.824219 210.097656 209.480469 211.597656 211.859375 211.597656 C 214.136719 211.597656 215.445312 210.699219 215.445312 207.203125 L 215.445312 184.421875 L 222.617188 184.421875 L 222.617188 208.304688 C 222.617188 215.550781 218.414062 218.84375 212.277344 218.84375 C 206.734375 218.84375 202.734375 215.089844 201.101562 211.597656 Z M 206.738281 208.148438 " fill-opacity="1" fill-rule="nonzero"/><g fill="#000000" fill-opacity="1"><g transform="translate(44.836771, 109.568312)"><g><path d="M 2.046875 0 L 2.046875 -46.390625 L 20.625 -46.390625 L 20.625 -37.421875 L 11.5 -37.421875 L 11.5 -28.40625 L 20.25 -28.40625 L 20.25 -19.65625 L 11.5 -19.65625 L 11.5 -9.015625 L 21.21875 -9.015625 L 21.21875 0 Z M 2.046875 0 "/></g></g></g><g fill="#000000" fill-opacity="1"><g transform="translate(67.084782, 109.568312)"><g><path d="M 24.5625 0 L 15.125 0 L 11.125 -11.125 L 7.34375 0 L 0.21875 0 L 7.453125 -21.21875 L 0.859375 -39.578125 L 10.46875 -39.578125 L 13.875 -29.96875 L 17.21875 -39.578125 L 24.25 -39.578125 L 17.4375 -20.03125 Z M 24.5625 0 "/></g></g></g><g fill="#000000" fill-opacity="1"><g transform="translate(91.870794, 109.568312)"><g><path d="M 1.890625 -39.53125 L 11.5 -39.53125 L 11.5 -37.421875 C 12.863281 -39.109375 14.753906 -39.953125 17.171875 -39.953125 C 20.234375 -39.953125 22.363281 -38.925781 23.5625 -36.875 C 24.769531 -34.820312 25.375 -31.976562 25.375 -28.34375 L 25.375 -13.71875 C 25.375 -10.625 25.191406 -8.09375 24.828125 -6.125 C 24.472656 -4.164062 23.679688 -2.582031 22.453125 -1.375 C 21.234375 -0.164062 19.382812 0.4375 16.90625 0.4375 C 14.53125 0.4375 12.726562 -0.226562 11.5 -1.5625 L 11.5 7.890625 L 1.890625 7.890625 Z M 13.765625 -6.90625 C 14.628906 -6.90625 15.1875 -7.300781 15.4375 -8.09375 C 15.695312 -8.882812 15.828125 -10.039062 15.828125 -11.5625 L 15.828125 -28.34375 C 15.828125 -29.71875 15.695312 -30.765625 15.4375 -31.484375 C 15.1875 -32.203125 14.613281 -32.5625 13.71875 -32.5625 C 12.238281 -32.5625 11.5 -31.191406 11.5 -28.453125 L 11.5 -11.125 C 11.5 -9.789062 11.648438 -8.753906 11.953125 -8.015625 C 12.265625 -7.273438 12.867188 -6.90625 13.765625 -6.90625 Z M 13.765625 -6.90625 "/></g></g></g><g fill="#000000" fill-opacity="1"><g transform="translate(118.870803, 109.568312)"><g><path d="M 1.890625 -39.53125 L 11.34375 -39.53125 L 11.34375 -35.15625 C 11.8125 -36.695312 12.628906 -37.890625 13.796875 -38.734375 C 14.960938 -39.585938 16.410156 -40.015625 18.140625 -40.015625 L 18.140625 -32.125 C 16.804688 -32.125 15.335938 -31.9375 13.734375 -31.5625 C 12.140625 -31.1875 11.34375 -30.742188 11.34375 -30.234375 L 11.34375 0 L 1.890625 0 Z M 1.890625 -39.53125 "/></g></g></g><g fill="#000000" fill-opacity="1"><g transform="translate(137.446806, 109.568312)"><g><path d="M 12.953125 0.4375 C 8.890625 0.4375 5.972656 -0.675781 4.203125 -2.90625 C 2.441406 -5.144531 1.5625 -8.476562 1.5625 -12.90625 L 1.5625 -28.78125 C 1.5625 -32.414062 2.601562 -35.1875 4.6875 -37.09375 C 6.78125 -39 9.703125 -39.953125 13.453125 -39.953125 C 21.046875 -39.953125 24.84375 -36.226562 24.84375 -28.78125 L 24.84375 -25.921875 C 24.84375 -23.035156 24.804688 -20.695312 24.734375 -18.90625 L 11.015625 -18.90625 L 11.015625 -11.234375 C 11.015625 -9.867188 11.15625 -8.796875 11.4375 -8.015625 C 11.726562 -7.242188 12.34375 -6.859375 13.28125 -6.859375 C 14 -6.859375 14.507812 -7.070312 14.8125 -7.5 C 15.125 -7.9375 15.304688 -8.429688 15.359375 -8.984375 C 15.410156 -9.546875 15.4375 -10.367188 15.4375 -11.453125 L 15.4375 -15.28125 L 24.84375 -15.28125 L 24.84375 -13.015625 C 24.84375 -8.410156 23.953125 -5.015625 22.171875 -2.828125 C 20.390625 -0.648438 17.316406 0.4375 12.953125 0.4375 Z M 15.4375 -23.59375 L 15.4375 -28.671875 C 15.4375 -31.515625 14.738281 -32.9375 13.34375 -32.9375 C 11.757812 -32.9375 10.96875 -31.515625 10.96875 -28.671875 L 10.96875 -23.59375 Z M 15.4375 -23.59375 "/></g></g></g><g fill="#000000" fill-opacity="1"><g transform="translate(163.798816, 109.568312)"><g><path d="M 12.75 0.4375 C 4.9375 0.4375 1.03125 -3.523438 1.03125 -11.453125 L 1.078125 -14.578125 L 10.53125 -14.578125 L 10.578125 -9.9375 C 10.578125 -9 10.753906 -8.285156 11.109375 -7.796875 C 11.472656 -7.316406 12.070312 -7.078125 12.90625 -7.078125 C 14.164062 -7.078125 14.796875 -8.101562 14.796875 -10.15625 C 14.796875 -11.664062 14.5 -12.851562 13.90625 -13.71875 C 13.3125 -14.582031 12.363281 -15.5 11.0625 -16.46875 L 6.046875 -20.359375 C 4.316406 -21.691406 3.070312 -23.066406 2.3125 -24.484375 C 1.5625 -25.910156 1.1875 -27.921875 1.1875 -30.515625 C 1.1875 -32.523438 1.71875 -34.238281 2.78125 -35.65625 C 3.84375 -37.082031 5.253906 -38.15625 7.015625 -38.875 C 8.785156 -39.59375 10.75 -39.953125 12.90625 -39.953125 C 20.570312 -39.953125 24.40625 -36.140625 24.40625 -28.515625 L 24.40625 -27.75 L 14.640625 -27.75 L 14.640625 -29.265625 C 14.640625 -30.203125 14.484375 -31.003906 14.171875 -31.671875 C 13.867188 -32.335938 13.359375 -32.671875 12.640625 -32.671875 C 11.984375 -32.671875 11.484375 -32.476562 11.140625 -32.09375 C 10.804688 -31.71875 10.640625 -31.207031 10.640625 -30.5625 C 10.640625 -29.125 11.195312 -28.007812 12.3125 -27.21875 L 18.140625 -22.953125 C 20.234375 -21.398438 21.835938 -19.710938 22.953125 -17.890625 C 24.066406 -16.078125 24.625 -13.785156 24.625 -11.015625 C 24.625 -7.347656 23.578125 -4.519531 21.484375 -2.53125 C 19.398438 -0.550781 16.488281 0.4375 12.75 0.4375 Z M 12.75 0.4375 "/></g></g></g><g fill="#000000" fill-opacity="1"><g transform="translate(189.448823, 109.568312)"><g><path d="M 12.75 0.4375 C 4.9375 0.4375 1.03125 -3.523438 1.03125 -11.453125 L 1.078125 -14.578125 L 10.53125 -14.578125 L 10.578125 -9.9375 C 10.578125 -9 10.753906 -8.285156 11.109375 -7.796875 C 11.472656 -7.316406 12.070312 -7.078125 12.90625 -7.078125 C 14.164062 -7.078125 14.796875 -8.101562 14.796875 -10.15625 C 14.796875 -11.664062 14.5 -12.851562 13.90625 -13.71875 C 13.3125 -14.582031 12.363281 -15.5 11.0625 -16.46875 L 6.046875 -20.359375 C 4.316406 -21.691406 3.070312 -23.066406 2.3125 -24.484375 C 1.5625 -25.910156 1.1875 -27.921875 1.1875 -30.515625 C 1.1875 -32.523438 1.71875 -34.238281 2.78125 -35.65625 C 3.84375 -37.082031 5.253906 -38.15625 7.015625 -38.875 C 8.785156 -39.59375 10.75 -39.953125 12.90625 -39.953125 C 20.570312 -39.953125 24.40625 -36.140625 24.40625 -28.515625 L 24.40625 -27.75 L 14.640625 -27.75 L 14.640625 -29.265625 C 14.640625 -30.203125 14.484375 -31.003906 14.171875 -31.671875 C 13.867188 -32.335938 13.359375 -32.671875 12.640625 -32.671875 C 11.984375 -32.671875 11.484375 -32.476562 11.140625 -32.09375 C 10.804688 -31.71875 10.640625 -31.207031 10.640625 -30.5625 C 10.640625 -29.125 11.195312 -28.007812 12.3125 -27.21875 L 18.140625 -22.953125 C 20.234375 -21.398438 21.835938 -19.710938 22.953125 -17.890625 C 24.066406 -16.078125 24.625 -13.785156 24.625 -11.015625 C 24.625 -7.347656 23.578125 -4.519531 21.484375 -2.53125 C 19.398438 -0.550781 16.488281 0.4375 12.75 0.4375 Z M 12.75 0.4375 "/></g></g></g><g fill="#000000" fill-opacity="1"><g transform="translate(215.09883, 109.568312)"><g><path d="M 1.453125 0 L 1.453125 -7.890625 L 10.90625 -7.890625 L 10.90625 0 Z M 1.453125 0 "/></g></g></g><g fill="#000000" fill-opacity="1"><g transform="translate(227.464834, 109.568312)"><g><path d="M 2.921875 -42.171875 L 2.921875 -48.765625 L 12.359375 -48.765625 L 12.359375 -42.171875 Z M 4.90625 4.640625 C 2.863281 4.640625 1.535156 4.40625 0.921875 3.9375 L 0.921875 -2.375 C 1.097656 -2.300781 1.382812 -2.265625 1.78125 -2.265625 C 2.25 -2.265625 2.554688 -2.414062 2.703125 -2.71875 C 2.847656 -3.03125 2.921875 -3.492188 2.921875 -4.109375 L 2.921875 -39.53125 L 12.359375 -39.53125 L 12.359375 -4.375 C 12.359375 -1.457031 11.765625 0.769531 10.578125 2.3125 C 9.390625 3.863281 7.5 4.640625 4.90625 4.640625 Z M 4.90625 4.640625 "/></g></g></g><g fill="#000000" fill-opacity="1"><g transform="translate(241.666848, 109.568312)"><g><path d="M 12.75 0.4375 C 4.9375 0.4375 1.03125 -3.523438 1.03125 -11.453125 L 1.078125 -14.578125 L 10.53125 -14.578125 L 10.578125 -9.9375 C 10.578125 -9 10.753906 -8.285156 11.109375 -7.796875 C 11.472656 -7.316406 12.070312 -7.078125 12.90625 -7.078125 C 14.164062 -7.078125 14.796875 -8.101562 14.796875 -10.15625 C 14.796875 -11.664062 14.5 -12.851562 13.90625 -13.71875 C 13.3125 -14.582031 12.363281 -15.5 11.0625 -16.46875 L 6.046875 -20.359375 C 4.316406 -21.691406 3.070312 -23.066406 2.3125 -24.484375 C 1.5625 -25.910156 1.1875 -27.921875 1.1875 -30.515625 C 1.1875 -32.523438 1.71875 -34.238281 2.78125 -35.65625 C 3.84375 -37.082031 5.253906 -38.15625 7.015625 -38.875 C 8.785156 -39.59375 10.75 -39.953125 12.90625 -39.953125 C 20.570312 -39.953125 24.40625 -36.140625 24.40625 -28.515625 L 24.40625 -27.75 L 14.640625 -27.75 L 14.640625 -29.265625 C 14.640625 -30.203125 14.484375 -31.003906 14.171875 -31.671875 C 13.867188 -32.335938 13.359375 -32.671875 12.640625 -32.671875 C 11.984375 -32.671875 11.484375 -32.476562 11.140625 -32.09375 C 10.804688 -31.71875 10.640625 -31.207031 10.640625 -30.5625 C 10.640625 -29.125 11.195312 -28.007812 12.3125 -27.21875 L 18.140625 -22.953125 C 20.234375 -21.398438 21.835938 -19.710938 22.953125 -17.890625 C 24.066406 -16.078125 24.625 -13.785156 24.625 -11.015625 C 24.625 -7.347656 23.578125 -4.519531 21.484375 -2.53125 C 19.398438 -0.550781 16.488281 0.4375 12.75 0.4375 Z M 12.75 0.4375 "/></g></g></g></svg>