<svg xmlns="http://www.w3.org/2000/svg" xmlns:xlink="http://www.w3.org/1999/xlink" width="400" zoomAndPan="magnify" viewBox="0 0 300 299.999988" height="400" preserveAspectRatio="xMidYMid meet" version="1.0"><defs><g/><clipPath id="7fad887b94"><path d="M 28.457031 23.089844 L 272.730469 23.089844 L 272.730469 270 L 28.457031 270 Z M 28.457031 23.089844 " clip-rule="nonzero"/></clipPath><clipPath id="8517605887"><path d="M 39.730469 23.089844 L 261.457031 23.089844 C 264.445312 23.089844 267.3125 24.277344 269.425781 26.390625 C 271.542969 28.503906 272.730469 31.371094 272.730469 34.359375 L 272.730469 258.726562 C 272.730469 261.71875 271.542969 264.585938 269.425781 266.699219 C 267.3125 268.8125 264.445312 270 261.457031 270 L 39.730469 270 C 36.738281 270 33.871094 268.8125 31.757812 266.699219 C 29.644531 264.585938 28.457031 261.71875 28.457031 258.726562 L 28.457031 34.359375 C 28.457031 31.371094 29.644531 28.503906 31.757812 26.390625 C 33.871094 24.277344 36.738281 23.089844 39.730469 23.089844 Z M 39.730469 23.089844 " clip-rule="nonzero"/></clipPath><clipPath id="e6f3c27ba5"><path d="M 47.816406 140 L 136.316406 140 L 136.316406 241 L 47.816406 241 Z M 47.816406 140 " clip-rule="nonzero"/></clipPath><clipPath id="8adab70eeb"><path d="M 159.171875 139.859375 L 250.671875 139.859375 L 250.671875 241.859375 L 159.171875 241.859375 Z M 159.171875 139.859375 " clip-rule="nonzero"/></clipPath></defs><rect x="-30" width="360" fill="#ffffff" y="-29.999999" height="359.999986" fill-opacity="1"/><rect x="-30" width="360" fill="#ffffff" y="-29.999999" height="359.999986" fill-opacity="1"/><g clip-path="url(#7fad887b94)"><g clip-path="url(#8517605887)"><path fill="#ffc44d" d="M 28.457031 23.089844 L 272.730469 23.089844 L 272.730469 270.222656 L 28.457031 270.222656 Z M 28.457031 23.089844 " fill-opacity="1" fill-rule="nonzero"/></g></g><g clip-path="url(#e6f3c27ba5)"><path fill="#e44d26" d="M 55.933594 230.609375 L 47.894531 140.332031 L 136.234375 140.332031 L 128.1875 230.59375 L 92.011719 240.636719 Z M 55.933594 230.609375 " fill-opacity="1" fill-rule="nonzero"/></g><path fill="#f16529" d="M 92.066406 232.964844 L 121.300781 224.851562 L 128.175781 147.714844 L 92.066406 147.714844 Z M 92.066406 232.964844 " fill-opacity="1" fill-rule="nonzero"/><path fill="#ebebeb" d="M 92.066406 181.199219 L 77.429688 181.199219 L 76.417969 169.859375 L 92.066406 169.859375 L 92.066406 158.789062 L 64.335938 158.789062 L 64.597656 161.757812 L 67.316406 192.269531 L 92.066406 192.269531 Z M 92.066406 209.953125 L 92.015625 209.964844 L 79.699219 206.632812 L 78.910156 197.804688 L 67.8125 197.804688 L 69.359375 215.1875 L 92.015625 221.484375 L 92.066406 221.472656 Z M 92.066406 209.953125 " fill-opacity="1" fill-rule="nonzero"/><path fill="#ffffff" d="M 92.027344 181.199219 L 92.027344 192.269531 L 105.644531 192.269531 L 104.359375 206.628906 L 92.023438 209.960938 L 92.023438 221.480469 L 114.695312 215.1875 L 114.863281 213.316406 L 117.464844 184.167969 L 117.734375 181.195312 L 114.753906 181.195312 Z M 92.027344 158.789062 L 92.027344 169.859375 L 118.742188 169.859375 L 118.960938 167.371094 L 119.46875 161.757812 L 119.730469 158.785156 Z M 92.027344 158.789062 " fill-opacity="1" fill-rule="nonzero"/><g clip-path="url(#8adab70eeb)"><path fill="#0277bd" d="M 250.65625 139.859375 L 159.183594 139.859375 L 167.253906 231.125 L 204.921875 241.859375 L 242.585938 231.125 Z M 250.65625 139.859375 " fill-opacity="1" fill-rule="nonzero"/></g><path fill="#039be5" d="M 204.921875 147.914062 L 204.921875 233.539062 L 235.054688 224.949219 L 241.777344 147.914062 Z M 204.921875 147.914062 " fill-opacity="1" fill-rule="nonzero"/><path fill="#ffffff" d="M 229.402344 161.335938 L 204.921875 161.335938 L 204.921875 172.070312 L 218.105469 172.070312 L 217.296875 182.808594 L 204.921875 182.808594 L 204.921875 193.542969 L 216.757812 193.542969 L 215.953125 205.625 L 204.921875 209.382812 L 204.921875 220.65625 L 226.175781 213.675781 L 228.058594 182.808594 Z M 229.402344 161.335938 " fill-opacity="1" fill-rule="nonzero"/><path fill="#eeeeee" d="M 204.921875 161.335938 L 204.921875 172.070312 L 180.976562 172.070312 L 180.167969 161.335938 Z M 192.542969 182.808594 L 193.082031 193.542969 L 204.921875 193.542969 L 204.921875 182.808594 Z M 193.621094 198.914062 L 182.859375 198.914062 L 183.667969 213.675781 L 204.921875 220.65625 L 204.921875 209.382812 L 193.890625 205.625 Z M 193.621094 198.914062 " fill-opacity="1" fill-rule="nonzero"/><g fill="#000000" fill-opacity="1"><g transform="translate(93.947744, 76.838615)"><g><path d="M 2.09375 0 L 2.09375 -47.25 L 11.5 -47.25 L 11.5 -30.359375 L 15.953125 -30.359375 L 15.953125 -47.25 L 25.359375 -47.25 L 25.359375 0 L 15.953125 0 L 15.953125 -21.453125 L 11.5 -21.453125 L 11.5 0 Z M 2.09375 0 "/></g></g></g><g fill="#000000" fill-opacity="1"><g transform="translate(121.390754, 76.838615)"><g><path d="M 6.15625 0 L 6.15625 -38.171875 L 0.546875 -38.171875 L 0.546875 -47.25 L 21.234375 -47.25 L 21.234375 -38.171875 L 15.625 -38.171875 L 15.625 0 Z M 6.15625 0 "/></g></g></g><g fill="#000000" fill-opacity="1"><g transform="translate(143.169179, 76.838615)"><g><path d="M 2.09375 0 L 2.09375 -47.25 L 16.5 -47.25 L 20.453125 -18.421875 L 24.421875 -47.25 L 38.9375 -47.25 L 38.9375 0 L 30.3125 0 L 30.3125 -34.046875 L 24.859375 0 L 16.390625 0 L 10.609375 -34.046875 L 10.609375 0 Z M 2.09375 0 "/></g></g></g><g fill="#000000" fill-opacity="1"><g transform="translate(184.1962, 76.838615)"><g><path d="M 2.09375 0 L 2.09375 -47.25 L 11.546875 -47.25 L 11.546875 -8.03125 L 21.28125 -8.03125 L 21.28125 0 Z M 2.09375 0 "/></g></g></g><g fill="#000000" fill-opacity="1"><g transform="translate(97.721181, 128.58861)"><g><path d="M 9.5625 0.546875 C 6.738281 0.546875 4.59375 -0.457031 3.125 -2.46875 C 1.664062 -4.488281 0.9375 -7.113281 0.9375 -10.34375 C 0.9375 -13.9375 1.445312 -16.820312 2.46875 -19 C 3.5 -21.1875 5.113281 -23.101562 7.3125 -24.75 C 5.519531 -28.269531 4.625 -31.3125 4.625 -33.875 C 4.625 -36.550781 5.492188 -38.648438 7.234375 -40.171875 C 8.972656 -41.691406 11.21875 -42.453125 13.96875 -42.453125 C 16.6875 -42.453125 18.914062 -41.726562 20.65625 -40.28125 C 22.394531 -38.832031 23.265625 -36.804688 23.265625 -34.203125 C 23.265625 -30.390625 21.15625 -26.816406 16.9375 -23.484375 L 18.640625 -19.46875 C 19.671875 -22.1875 21.210938 -24.296875 23.265625 -25.796875 L 27 -19.96875 C 24.84375 -18.28125 23.082031 -15.492188 21.71875 -11.609375 L 26.515625 0 L 17.375 0 L 16.390625 -2.578125 C 15.617188 -1.660156 14.632812 -0.910156 13.4375 -0.328125 C 12.25 0.253906 10.957031 0.546875 9.5625 0.546875 Z M 14.953125 -30.3125 C 15.328125 -30.707031 15.660156 -31.28125 15.953125 -32.03125 C 16.242188 -32.789062 16.390625 -33.515625 16.390625 -34.203125 C 16.390625 -35.304688 15.859375 -35.859375 14.796875 -35.859375 C 14.359375 -35.859375 14.007812 -35.703125 13.75 -35.390625 C 13.488281 -35.078125 13.359375 -34.679688 13.359375 -34.203125 C 13.359375 -33.253906 13.742188 -31.789062 14.515625 -29.8125 Z M 11.0625 -6.328125 C 11.75 -6.328125 12.332031 -6.59375 12.8125 -7.125 C 13.289062 -7.65625 13.601562 -8.269531 13.75 -8.96875 L 10.5 -16.78125 L 10.171875 -16.28125 C 9.878906 -15.84375 9.640625 -15.144531 9.453125 -14.1875 C 9.273438 -13.238281 9.1875 -12.304688 9.1875 -11.390625 L 9.1875 -11.109375 C 9.1875 -9.679688 9.296875 -8.523438 9.515625 -7.640625 C 9.734375 -6.765625 10.25 -6.328125 11.0625 -6.328125 Z M 11.0625 -6.328125 "/></g></g></g><g fill="#000000" fill-opacity="1"><g transform="translate(125.49417, 128.58861)"><g><path d="M 13.09375 0.4375 C 9.644531 0.4375 6.882812 -0.640625 4.8125 -2.796875 C 2.738281 -4.960938 1.703125 -7.9375 1.703125 -11.71875 L 1.703125 -33.5 C 1.703125 -38.1875 2.632812 -41.722656 4.5 -44.109375 C 6.375 -46.492188 9.3125 -47.6875 13.3125 -47.6875 C 16.789062 -47.6875 19.59375 -46.734375 21.71875 -44.828125 C 23.851562 -42.921875 24.921875 -40.171875 24.921875 -36.578125 L 24.921875 -28.4375 L 15.515625 -28.4375 L 15.515625 -35.421875 C 15.515625 -36.773438 15.347656 -37.707031 15.015625 -38.21875 C 14.679688 -38.738281 14.113281 -39 13.3125 -39 C 12.46875 -39 11.890625 -38.703125 11.578125 -38.109375 C 11.265625 -37.523438 11.109375 -36.664062 11.109375 -35.53125 L 11.109375 -11.828125 C 11.109375 -10.578125 11.289062 -9.664062 11.65625 -9.09375 C 12.019531 -8.53125 12.570312 -8.25 13.3125 -8.25 C 14.78125 -8.25 15.515625 -9.441406 15.515625 -11.828125 L 15.515625 -20.34375 L 25.03125 -20.34375 L 25.03125 -11.4375 C 25.03125 -3.519531 21.050781 0.4375 13.09375 0.4375 Z M 13.09375 0.4375 "/></g></g></g><g fill="#000000" fill-opacity="1"><g transform="translate(151.562276, 128.58861)"><g><path d="M 13.3125 0.4375 C 9.019531 0.4375 5.921875 -0.625 4.015625 -2.75 C 2.109375 -4.875 1.15625 -8.300781 1.15625 -13.03125 L 1.15625 -17.65625 L 10.453125 -17.65625 L 10.453125 -11.765625 C 10.453125 -9.421875 11.203125 -8.25 12.703125 -8.25 C 13.546875 -8.25 14.128906 -8.492188 14.453125 -8.984375 C 14.785156 -9.484375 14.953125 -10.320312 14.953125 -11.5 C 14.953125 -13.039062 14.769531 -14.3125 14.40625 -15.3125 C 14.039062 -16.320312 13.570312 -17.164062 13 -17.84375 C 12.4375 -18.519531 11.421875 -19.578125 9.953125 -21.015625 L 5.890625 -25.078125 C 2.734375 -28.160156 1.15625 -31.570312 1.15625 -35.3125 C 1.15625 -39.34375 2.078125 -42.410156 3.921875 -44.515625 C 5.773438 -46.628906 8.484375 -47.6875 12.046875 -47.6875 C 16.296875 -47.6875 19.351562 -46.554688 21.21875 -44.296875 C 23.09375 -42.046875 24.03125 -38.519531 24.03125 -33.71875 L 14.40625 -33.71875 L 14.359375 -36.953125 C 14.359375 -37.578125 14.179688 -38.070312 13.828125 -38.4375 C 13.484375 -38.8125 13 -39 12.375 -39 C 11.644531 -39 11.09375 -38.796875 10.71875 -38.390625 C 10.351562 -37.984375 10.171875 -37.429688 10.171875 -36.734375 C 10.171875 -35.203125 11.050781 -33.609375 12.8125 -31.953125 L 18.3125 -26.671875 C 19.59375 -25.429688 20.65625 -24.25 21.5 -23.125 C 22.34375 -22.007812 23.019531 -20.691406 23.53125 -19.171875 C 24.050781 -17.648438 24.3125 -15.84375 24.3125 -13.75 C 24.3125 -9.09375 23.457031 -5.5625 21.75 -3.15625 C 20.039062 -0.757812 17.226562 0.4375 13.3125 0.4375 Z M 13.3125 0.4375 "/></g></g></g><g fill="#000000" fill-opacity="1"><g transform="translate(176.915434, 128.58861)"><g><path d="M 13.3125 0.4375 C 9.019531 0.4375 5.921875 -0.625 4.015625 -2.75 C 2.109375 -4.875 1.15625 -8.300781 1.15625 -13.03125 L 1.15625 -17.65625 L 10.453125 -17.65625 L 10.453125 -11.765625 C 10.453125 -9.421875 11.203125 -8.25 12.703125 -8.25 C 13.546875 -8.25 14.128906 -8.492188 14.453125 -8.984375 C 14.785156 -9.484375 14.953125 -10.320312 14.953125 -11.5 C 14.953125 -13.039062 14.769531 -14.3125 14.40625 -15.3125 C 14.039062 -16.320312 13.570312 -17.164062 13 -17.84375 C 12.4375 -18.519531 11.421875 -19.578125 9.953125 -21.015625 L 5.890625 -25.078125 C 2.734375 -28.160156 1.15625 -31.570312 1.15625 -35.3125 C 1.15625 -39.34375 2.078125 -42.410156 3.921875 -44.515625 C 5.773438 -46.628906 8.484375 -47.6875 12.046875 -47.6875 C 16.296875 -47.6875 19.351562 -46.554688 21.21875 -44.296875 C 23.09375 -42.046875 24.03125 -38.519531 24.03125 -33.71875 L 14.40625 -33.71875 L 14.359375 -36.953125 C 14.359375 -37.578125 14.179688 -38.070312 13.828125 -38.4375 C 13.484375 -38.8125 13 -39 12.375 -39 C 11.644531 -39 11.09375 -38.796875 10.71875 -38.390625 C 10.351562 -37.984375 10.171875 -37.429688 10.171875 -36.734375 C 10.171875 -35.203125 11.050781 -33.609375 12.8125 -31.953125 L 18.3125 -26.671875 C 19.59375 -25.429688 20.65625 -24.25 21.5 -23.125 C 22.34375 -22.007812 23.019531 -20.691406 23.53125 -19.171875 C 24.050781 -17.648438 24.3125 -15.84375 24.3125 -13.75 C 24.3125 -9.09375 23.457031 -5.5625 21.75 -3.15625 C 20.039062 -0.757812 17.226562 0.4375 13.3125 0.4375 Z M 13.3125 0.4375 "/></g></g></g></svg>