<svg xmlns="http://www.w3.org/2000/svg" xmlns:xlink="http://www.w3.org/1999/xlink" width="400" zoomAndPan="magnify" viewBox="0 0 300 299.999988" height="400" preserveAspectRatio="xMidYMid meet" version="1.0"><defs><g/><clipPath id="b56fd7eae3"><path d="M 27.863281 27.117188 L 272.136719 27.117188 L 272.136719 274.25 L 27.863281 274.25 Z M 27.863281 27.117188 " clip-rule="nonzero"/></clipPath><clipPath id="30a8fb1e30"><path d="M 39.113281 27.117188 L 260.886719 27.117188 C 267.097656 27.117188 272.136719 32.152344 272.136719 38.367188 L 272.136719 262.777344 C 272.136719 268.988281 267.097656 274.027344 260.886719 274.027344 L 39.113281 274.027344 C 32.902344 274.027344 27.863281 268.988281 27.863281 262.777344 L 27.863281 38.367188 C 27.863281 32.152344 32.902344 27.117188 39.113281 27.117188 Z M 39.113281 27.117188 " clip-rule="nonzero"/></clipPath><clipPath id="5d4ad4c17c"><path d="M 102 118.296875 L 198 118.296875 L 198 212 L 102 212 Z M 102 118.296875 " clip-rule="nonzero"/></clipPath><clipPath id="c774b0255c"><path d="M 77 226 L 174 226 L 174 261.546875 L 77 261.546875 Z M 77 226 " clip-rule="nonzero"/></clipPath><clipPath id="2ac8b6df0c"><path d="M 76.726562 229 L 186 229 L 186 261.546875 L 76.726562 261.546875 Z M 76.726562 229 " clip-rule="nonzero"/></clipPath><clipPath id="b7a1c8fe33"><path d="M 96 219 L 222.976562 219 L 222.976562 252 L 96 252 Z M 96 219 " clip-rule="nonzero"/></clipPath></defs><rect x="-30" width="360" fill="#ffffff" y="-29.999999" height="359.999986" fill-opacity="1"/><rect x="-30" width="360" fill="#ffffff" y="-29.999999" height="359.999986" fill-opacity="1"/><g clip-path="url(#b56fd7eae3)"><g clip-path="url(#30a8fb1e30)"><path fill="#e75b6d" d="M 27.863281 27.117188 L 272.136719 27.117188 L 272.136719 274.25 L 27.863281 274.25 Z M 27.863281 27.117188 " fill-opacity="1" fill-rule="nonzero"/></g></g><g clip-path="url(#5d4ad4c17c)"><path fill="#0868ac" d="M 108.71875 140.347656 C 100.363281 152.617188 101.40625 168.578125 107.769531 181.597656 L 108.238281 182.527344 L 108.554688 183.113281 C 108.613281 183.230469 108.683594 183.339844 108.742188 183.453125 C 108.851562 183.660156 108.964844 183.855469 109.058594 184.058594 L 109.667969 185.128906 L 110.015625 185.714844 L 110.722656 186.84375 L 111.039062 187.320312 C 111.355469 187.828125 111.710938 188.332031 112.0625 188.832031 C 112.070312 188.84375 112.082031 188.859375 112.089844 188.871094 C 112.148438 188.949219 112.207031 189.03125 112.25 189.109375 C 112.554688 189.539062 112.882812 189.960938 113.199219 190.378906 L 113.550781 190.835938 L 114.410156 191.917969 L 114.742188 192.320312 C 115.132812 192.796875 115.53125 193.261719 115.941406 193.722656 L 115.96875 193.746094 C 115.984375 193.769531 116 193.78125 116.015625 193.800781 C 116.410156 194.25 116.820312 194.6875 117.234375 195.117188 L 117.628906 195.519531 L 118.605469 196.496094 L 119.003906 196.882812 C 119.441406 197.304688 119.886719 197.71875 120.339844 198.125 L 120.59375 198.347656 L 121.804688 199.394531 L 122.308594 199.804688 L 123.320312 200.597656 L 123.859375 201.019531 L 125.40625 202.152344 C 125.445312 202.179688 125.480469 202.210938 125.519531 202.234375 C 125.886719 202.488281 126.253906 202.734375 126.625 202.980469 L 127.101562 203.308594 L 128.828125 204.386719 L 129.304688 204.660156 L 130.601562 205.402344 C 130.839844 205.53125 131.082031 205.65625 131.320312 205.78125 L 132.246094 206.257812 L 132.460938 206.359375 L 132.839844 206.546875 L 134.308594 207.242188 L 134.621094 207.402344 C 135.1875 207.65625 135.757812 207.898438 136.335938 208.128906 L 136.753906 208.296875 L 138.371094 208.910156 L 138.574219 208.984375 C 139.171875 209.195312 139.769531 209.394531 140.375 209.585938 L 140.8125 209.71875 C 141.445312 209.910156 142.035156 210.136719 142.671875 210.257812 C 183.074219 217.804688 194.8125 185.46875 194.8125 185.46875 C 184.957031 198.589844 167.460938 202.046875 150.882812 198.195312 C 150.257812 198.039062 149.648438 197.851562 149.035156 197.667969 L 148.574219 197.507812 C 147.976562 197.320312 147.378906 197.121094 146.792969 196.917969 L 146.546875 196.824219 C 146.019531 196.636719 145.496094 196.4375 144.976562 196.230469 L 144.535156 196.054688 C 143.964844 195.824219 143.398438 195.582031 142.839844 195.332031 L 142.5 195.179688 L 141.070312 194.5 L 140.660156 194.296875 C 140.289062 194.109375 139.917969 193.917969 139.550781 193.71875 L 138.8125 193.324219 C 138.367188 193.078125 137.925781 192.824219 137.488281 192.5625 L 137.039062 192.308594 C 136.457031 191.960938 135.882812 191.59375 135.3125 191.230469 C 135.15625 191.128906 135.003906 191.015625 134.847656 190.914062 L 133.617188 190.078125 L 133.222656 189.792969 L 132.0625 188.9375 L 131.546875 188.539062 L 130.496094 187.703125 L 130.027344 187.320312 L 128.722656 186.210938 C 128.679688 186.171875 128.628906 186.128906 128.566406 186.089844 C 128.101562 185.671875 127.644531 185.242188 127.191406 184.8125 L 126.808594 184.429688 L 125.820312 183.445312 L 125.433594 183.046875 C 125.023438 182.621094 124.621094 182.183594 124.222656 181.742188 C 124.207031 181.71875 124.183594 181.699219 124.164062 181.675781 C 123.746094 181.210938 123.335938 180.734375 122.9375 180.25 L 122.617188 179.859375 L 121.730469 178.742188 L 121.40625 178.332031 L 120.386719 176.941406 C 111.183594 164.117188 107.894531 146.425781 115.230469 131.894531 M 134.65625 130.011719 C 128.613281 138.894531 128.941406 150.785156 133.65625 160.179688 C 134.445312 161.761719 135.335938 163.28125 136.328125 164.738281 C 137.230469 166.0625 138.234375 167.640625 139.4375 168.707031 C 139.871094 169.179688 140.328125 169.65625 140.792969 170.144531 C 140.910156 170.265625 141.03125 170.382812 141.152344 170.503906 C 141.601562 170.953125 142.0625 171.390625 142.535156 171.820312 C 142.554688 171.835938 142.574219 171.851562 142.59375 171.867188 C 143.125 172.34375 143.667969 172.804688 144.222656 173.25 L 144.589844 173.542969 C 145.144531 173.976562 145.707031 174.398438 146.28125 174.804688 C 146.296875 174.816406 146.3125 174.828125 146.332031 174.839844 C 146.582031 175.019531 146.84375 175.191406 147.101562 175.359375 C 147.226562 175.445312 147.34375 175.53125 147.464844 175.609375 C 147.878906 175.878906 148.296875 176.140625 148.71875 176.394531 L 148.898438 176.5 L 150.003906 177.132812 C 150.132812 177.207031 150.265625 177.273438 150.398438 177.34375 L 151.191406 177.753906 C 151.230469 177.773438 151.269531 177.789062 151.308594 177.808594 C 151.839844 178.078125 152.375 178.332031 152.925781 178.578125 C 153.042969 178.628906 153.160156 178.675781 153.28125 178.726562 C 153.71875 178.917969 154.164062 179.101562 154.609375 179.277344 L 155.179688 179.492188 C 155.582031 179.640625 155.988281 179.785156 156.398438 179.925781 L 156.949219 180.101562 C 157.527344 180.289062 158.101562 180.519531 158.707031 180.625 C 189.902344 185.902344 197.105469 161.363281 197.105469 161.363281 C 190.613281 170.914062 178.042969 175.472656 164.625 171.917969 C 164.03125 171.757812 163.445312 171.585938 162.859375 171.394531 C 162.679688 171.335938 162.503906 171.277344 162.328125 171.234375 C 161.914062 171.097656 161.503906 170.953125 161.09375 170.800781 L 160.535156 170.585938 C 160.085938 170.429688 159.644531 170.230469 159.207031 170.039062 C 159.085938 169.988281 158.964844 169.941406 158.847656 169.882812 C 158.296875 169.644531 157.753906 169.386719 157.21875 169.113281 C 156.941406 168.972656 156.671875 168.828125 156.402344 168.6875 L 155.929688 168.4375 C 155.582031 168.246094 155.238281 168.046875 154.898438 167.84375 L 154.652344 167.683594 C 154.230469 167.433594 153.8125 167.171875 153.402344 166.90625 C 153.277344 166.820312 153.152344 166.746094 153.027344 166.648438 L 152.214844 166.101562 C 151.644531 165.695312 151.082031 165.273438 150.53125 164.839844 L 150.152344 164.535156 C 144.277344 159.796875 139.625 153.324219 137.410156 145.984375 C 135.089844 138.367188 135.59375 129.824219 139.625 122.890625 M 156.464844 122.289062 C 152.902344 127.644531 152.554688 134.292969 155.039062 140.210938 C 157.648438 146.488281 162.988281 151.414062 169.21875 153.746094 C 169.476562 153.84375 169.734375 153.933594 170.011719 154.023438 L 170.351562 154.132812 C 170.71875 154.25 171.085938 154.386719 171.460938 154.460938 C 188.6875 157.859375 193.359375 145.429688 194.601562 143.597656 C 190.507812 149.621094 183.632812 151.066406 175.191406 148.972656 C 174.527344 148.808594 173.792969 148.5625 173.136719 148.328125 C 172.3125 148.027344 171.503906 147.6875 170.714844 147.300781 C 169.207031 146.558594 167.789062 145.675781 166.460938 144.648438 C 158.894531 138.792969 154.203125 127.628906 159.128906 118.535156 " fill-opacity="1" fill-rule="nonzero"/></g><path fill="#131b28" d="M 118.421875 235.988281 L 117.257812 240.136719 Z M 124.425781 244.996094 L 123.140625 244.988281 Z M 124.109375 251.191406 L 116.40625 251.222656 Z M 125.722656 245.003906 L 124.4375 244.996094 Z M 124.804688 250.667969 L 126.148438 245.53125 Z M 153.160156 227.015625 L 150.660156 238.808594 Z M 146.730469 227.015625 L 144.832031 235.824219 Z M 146.730469 227.015625 " fill-opacity="1" fill-rule="nonzero"/><path fill="#131b28" d="M 152.714844 226.484375 L 147.371094 226.484375 C 147.074219 226.484375 146.777344 226.722656 146.714844 227.011719 L 142.921875 244.636719 C 142.855469 244.925781 142.5625 245.164062 142.265625 245.164062 L 138.484375 245.164062 C 134.738281 245.164062 135.171875 242.566406 135.953125 239.007812 L 135.976562 238.898438 L 136.429688 236.472656 L 136.625 235.472656 L 138.351562 227.011719 C 138.414062 226.722656 138.21875 226.480469 137.921875 226.480469 L 132.433594 226.480469 C 132.277344 226.488281 132.140625 226.539062 132.019531 226.636719 C 131.898438 226.734375 131.820312 226.859375 131.78125 227.011719 L 129.308594 238.773438 C 127.949219 245 128.3125 250.9375 135.699219 251.125 L 135.914062 251.128906 L 147.507812 251.128906 C 147.804688 251.128906 148.097656 250.890625 148.160156 250.597656 L 153.160156 227.011719 C 153.226562 226.71875 153.03125 226.480469 152.734375 226.480469 Z M 174.046875 245.226562 C 174.34375 245.226562 174.519531 245.464844 174.476562 245.753906 L 173.957031 248.300781 M 173.4375 250.851562 L 173.957031 248.300781 Z M 172.789062 251.386719 L 162.933594 251.433594 Z M 172.789062 251.386719 " fill-opacity="1" fill-rule="nonzero"/><path fill="#131b28" d="M 159.742188 241.949219 C 159.738281 241.667969 160.054688 241.191406 160.351562 241.191406 L 159.683594 241.179688 C 159.371094 244.214844 159.742188 241.949219 159.742188 241.949219 Z M 163.421875 251.433594 L 163.320312 251.433594 Z M 174.046875 245.226562 C 174.34375 245.226562 174.519531 245.464844 174.476562 245.753906 L 173.871094 248.714844 M 165.953125 251.441406 L 165.929688 251.441406 Z M 164.640625 251.429688 L 164.5625 251.429688 Z M 164.238281 251.433594 L 164.113281 251.433594 Z M 163.847656 251.433594 L 163.738281 251.433594 Z M 164.582031 251.429688 L 164.257812 251.429688 Z M 164.582031 251.429688 " fill-opacity="1" fill-rule="nonzero"/><g clip-path="url(#c774b0255c)"><path fill="#131b28" d="M 165.933594 251.441406 L 164.640625 251.445312 Z M 172.792969 251.402344 L 165.953125 251.441406 Z M 173.421875 250.851562 L 173.859375 248.71875 Z M 164.097656 251.433594 L 163.847656 251.433594 L 164.132812 251.433594 Z M 163.316406 251.433594 L 162.9375 251.433594 Z M 163.722656 251.433594 L 163.40625 251.433594 Z M 85.503906 242.011719 L 86.335938 238.316406 L 85.386719 242.539062 L 85.273438 243.066406 L 85.503906 242.007812 Z M 95.445312 226.421875 L 89.574219 226.421875 C 89.417969 226.429688 89.277344 226.480469 89.15625 226.578125 C 89.035156 226.675781 88.953125 226.800781 88.914062 226.953125 L 87.800781 231.871094 C 87.78125 231.933594 87.777344 232 87.792969 232.066406 C 87.804688 232.132812 87.832031 232.191406 87.875 232.246094 C 87.914062 232.296875 87.96875 232.335938 88.027344 232.363281 C 88.089844 232.390625 88.152344 232.402344 88.222656 232.398438 L 94.140625 232.398438 C 94.4375 232.398438 94.730469 232.160156 94.792969 231.871094 L 95.867188 226.941406 C 95.933594 226.648438 95.742188 226.414062 95.441406 226.414062 Z M 94.167969 234.621094 L 92.425781 242.617188 Z M 77.109375 261.109375 L 81.953125 261.148438 C 80.523438 261.148438 78.160156 261.121094 77.109375 261.109375 Z M 77.109375 261.109375 " fill-opacity="1" fill-rule="nonzero"/></g><g clip-path="url(#2ac8b6df0c)"><path fill="#131b28" d="M 87.148438 234.621094 L 86.316406 238.316406 Z M 93.742188 234.09375 L 87.824219 234.09375 C 87.667969 234.101562 87.53125 234.152344 87.40625 234.25 C 87.285156 234.347656 87.203125 234.472656 87.164062 234.621094 L 85.503906 242.011719 L 85.273438 243.070312 L 83.691406 250.609375 C 83.613281 250.960938 83.519531 251.308594 83.40625 251.652344 C 83.40625 251.652344 82.300781 254.953125 80.445312 254.917969 L 78.601562 254.882812 C 78.445312 254.886719 78.308594 254.9375 78.183594 255.03125 C 78.0625 255.125 77.980469 255.25 77.9375 255.398438 L 76.710938 260.574219 C 76.691406 260.640625 76.6875 260.707031 76.699219 260.769531 C 76.710938 260.835938 76.738281 260.898438 76.78125 260.949219 C 76.820312 261.003906 76.871094 261.042969 76.933594 261.070312 C 76.992188 261.101562 77.058594 261.113281 77.125 261.109375 L 81.96875 261.148438 C 86.609375 261.148438 89.058594 258.566406 90.628906 251.140625 L 94.1875 234.640625 C 94.25 234.351562 94.054688 234.113281 93.757812 234.113281 Z M 177.816406 251.132812 C 177.519531 251.132812 177.34375 250.894531 177.390625 250.601562 L 181.839844 229.679688 M 184.003906 250.601562 L 185.804688 241.671875 Z M 184.003906 250.601562 " fill-opacity="1" fill-rule="nonzero"/></g><path fill="#131b28" d="M 177.453125 250.867188 C 177.417969 250.71875 177.4375 250.363281 177.503906 250.074219 L 179.613281 240.140625 L 177.386719 250.601562 C 177.324219 250.894531 177.519531 251.132812 177.816406 251.132812 L 178.355469 251.132812 C 178.058594 251.132812 177.488281 251.011719 177.453125 250.867188 Z M 183.652344 251.011719 C 183.492188 251.074219 183.117188 251.132812 182.820312 251.132812 L 183.359375 251.132812 C 183.515625 251.125 183.652344 251.074219 183.773438 250.972656 C 183.894531 250.875 183.972656 250.75 184.007812 250.601562 L 184.117188 250.070312 C 184.058594 250.363281 183.800781 250.945312 183.640625 251.011719 Z M 184.902344 246.136719 L 185.699219 242.195312 Z M 202.46875 231.082031 L 202.714844 232.097656 C 202.785156 232.386719 202.59375 232.625 202.300781 232.625 " fill-opacity="1" fill-rule="nonzero"/><path fill="#131b28" d="M 184.109375 250.070312 L 184.902344 246.136719 Z M 202.226562 230.023438 L 202.46875 231.0625 Z M 185.699219 242.195312 L 185.917969 241.140625 L 186.765625 237.148438 L 185.804688 241.667969 L 185.699219 242.191406 Z M 181.914062 229.335938 L 181.730469 230.210938 L 179.617188 240.140625 L 181.84375 229.679688 L 181.914062 229.339844 Z M 181.914062 229.335938 " fill-opacity="1" fill-rule="nonzero"/><g clip-path="url(#b7a1c8fe33)"><path fill="#131b28" d="M 202.71875 232.097656 L 202.472656 231.082031 L 202.109375 229.496094 C 201.628906 227.621094 200.214844 226.539062 197.152344 226.539062 L 183.046875 226.53125 C 182.890625 226.535156 182.75 226.585938 182.632812 226.683594 C 182.511719 226.785156 182.429688 226.910156 182.394531 227.058594 L 182.175781 228.09375 L 181.859375 229.660156 L 177.519531 250.054688 C 177.457031 250.347656 177.4375 250.6875 177.472656 250.847656 C 177.507812 251.003906 178.078125 251.113281 178.375 251.113281 L 182.832031 251.113281 C 183.128906 251.113281 183.503906 251.058594 183.667969 250.992188 C 183.832031 250.929688 184.070312 250.359375 184.144531 250.050781 L 185.835938 241.652344 L 187.644531 233.140625 C 187.707031 232.851562 188 232.613281 188.296875 232.613281 L 202.328125 232.605469 C 202.625 232.605469 202.8125 232.367188 202.746094 232.078125 Z M 220.78125 222.90625 L 219.703125 222.910156 L 215.210938 222.910156 C 214.863281 222.929688 214.578125 223.082031 214.367188 223.359375 L 204.433594 237.953125 C 204.265625 238.199219 204.074219 238.164062 204.007812 237.875 L 203.277344 234.660156 C 203.238281 234.507812 203.15625 234.382812 203.035156 234.285156 C 202.910156 234.1875 202.773438 234.136719 202.617188 234.132812 L 196.234375 234.132812 C 195.9375 234.132812 195.757812 234.363281 195.839844 234.652344 L 198.6875 244.707031 C 198.769531 244.992188 198.773438 245.464844 198.703125 245.753906 L 197.4375 250.621094 C 197.417969 250.683594 197.410156 250.75 197.421875 250.816406 C 197.433594 250.878906 197.457031 250.941406 197.5 250.992188 C 197.539062 251.046875 197.589844 251.085938 197.652344 251.113281 C 197.714844 251.140625 197.777344 251.152344 197.84375 251.144531 L 204.171875 251.144531 C 204.46875 251.144531 204.769531 250.90625 204.84375 250.621094 L 206.109375 245.753906 C 206.210938 245.410156 206.363281 245.089844 206.566406 244.796875 L 222.707031 223.328125 C 222.886719 223.089844 222.789062 222.894531 222.492188 222.898438 L 220.800781 222.910156 Z M 170.054688 235.5 C 170.015625 235.816406 169.71875 236.054688 169.421875 236.054688 L 161.324219 236.054688 C 161.046875 236.054688 160.902344 235.863281 160.945312 235.625 L 160.953125 235.582031 L 160.988281 235.445312 C 161.78125 233.382812 163.335938 232.027344 166.296875 232.027344 C 169.628906 232.027344 170.277344 233.664062 170.050781 235.5 Z M 167.679688 226.125 C 157.289062 226.125 154.828125 232.453125 153.445312 238.839844 C 152.066406 245.347656 152.183594 251.4375 162.933594 251.4375 L 164.640625 251.4375 L 165.953125 251.429688 L 172.792969 251.390625 C 172.949219 251.382812 173.085938 251.328125 173.203125 251.230469 C 173.324219 251.132812 173.402344 251.007812 173.4375 250.859375 L 174.476562 245.761719 C 174.535156 245.46875 174.34375 245.230469 174.046875 245.230469 L 164.378906 245.230469 C 160.535156 245.230469 159.394531 244.207031 159.8125 241.195312 L 175.265625 241.195312 C 175.515625 241.191406 175.746094 241.035156 175.835938 240.792969 C 175.851562 240.75 175.867188 240.707031 175.875 240.660156 C 178.167969 231.980469 177.511719 226.132812 167.683594 226.132812 Z M 118.570312 235.464844 L 118.421875 235.984375 C 118.421875 235.984375 117.257812 240.132812 117.257812 240.132812 L 116.089844 244.28125 C 115.980469 244.613281 115.75 244.785156 115.402344 244.800781 L 109.226562 244.800781 C 104.542969 244.800781 103.402344 241.125 104.542969 235.703125 C 105.679688 230.160156 107.917969 226.710938 112.527344 226.363281 C 118.828125 225.886719 120.085938 230.332031 118.570312 235.460938 Z M 122.804688 244.484375 C 122.804688 244.484375 125.714844 237.390625 126.378906 233.292969 C 127.28125 227.808594 124.542969 219.855469 113.972656 219.855469 C 103.460938 219.855469 98.894531 227.449219 97.15625 235.722656 C 95.414062 244.035156 97.695312 251.328125 108.144531 251.269531 L 124.097656 251.210938 C 124.253906 251.203125 124.394531 251.152344 124.515625 251.054688 C 124.640625 250.957031 124.726562 250.835938 124.773438 250.683594 L 126.117188 245.546875 C 126.136719 245.484375 126.144531 245.417969 126.132812 245.351562 C 126.121094 245.285156 126.097656 245.226562 126.054688 245.171875 C 126.015625 245.121094 125.964844 245.082031 125.902344 245.054688 C 125.84375 245.027344 125.777344 245.015625 125.710938 245.019531 L 123.140625 245.003906 C 122.886719 245.003906 122.746094 244.839844 122.773438 244.621094 C 122.777344 244.582031 122.789062 244.542969 122.804688 244.503906 Z M 122.804688 244.484375 " fill-opacity="1" fill-rule="nonzero"/></g><path fill="#131b28" d="M 174.839844 239.738281 C 174.839844 239.933594 174.683594 240.09375 174.488281 240.09375 C 174.289062 240.09375 174.132812 239.933594 174.132812 239.738281 C 174.132812 239.542969 174.289062 239.382812 174.488281 239.382812 C 174.683594 239.382812 174.839844 239.542969 174.839844 239.738281 Z M 174.839844 239.738281 " fill-opacity="1" fill-rule="nonzero"/><g fill="#000000" fill-opacity="1"><g transform="translate(79.896968, 96.461944)"><g><path d="M 2.96875 -42.953125 L 2.96875 -49.671875 L 12.59375 -49.671875 L 12.59375 -42.953125 Z M 5 4.734375 C 2.914062 4.734375 1.5625 4.492188 0.9375 4.015625 L 0.9375 -2.421875 C 1.113281 -2.347656 1.40625 -2.3125 1.8125 -2.3125 C 2.289062 -2.3125 2.601562 -2.46875 2.75 -2.78125 C 2.894531 -3.09375 2.96875 -3.5625 2.96875 -4.1875 L 2.96875 -40.265625 L 12.59375 -40.265625 L 12.59375 -4.453125 C 12.59375 -1.484375 11.988281 0.785156 10.78125 2.359375 C 9.570312 3.941406 7.644531 4.734375 5 4.734375 Z M 5 4.734375 "/></g></g></g><g fill="#000000" fill-opacity="1"><g transform="translate(94.360914, 96.461944)"><g><path d="M 15.453125 0.0625 C 14.054688 0.3125 13.269531 0.4375 13.09375 0.4375 C 9.28125 0.4375 6.382812 -0.648438 4.40625 -2.828125 C 2.425781 -5.015625 1.4375 -8.21875 1.4375 -12.4375 L 1.4375 -35.25 C 1.4375 -39.320312 2.429688 -42.410156 4.421875 -44.515625 C 6.421875 -46.628906 9.3125 -47.6875 13.09375 -47.6875 C 16.863281 -47.6875 19.75 -46.628906 21.75 -44.515625 C 23.75 -42.410156 24.75 -39.320312 24.75 -35.25 L 24.75 -12.4375 C 24.75 -8.539062 23.867188 -5.457031 22.109375 -3.1875 L 26.1875 -0.609375 L 22.984375 5 Z M 13.09375 -8.25 C 14.007812 -8.25 14.59375 -8.6875 14.84375 -9.5625 C 15.101562 -10.445312 15.234375 -11.585938 15.234375 -12.984375 L 15.234375 -35.09375 C 15.234375 -36.300781 15.078125 -37.253906 14.765625 -37.953125 C 14.453125 -38.648438 13.875 -39 13.03125 -39 C 11.53125 -39 10.78125 -37.710938 10.78125 -35.140625 L 10.78125 -12.8125 C 10.78125 -11.488281 10.925781 -10.394531 11.21875 -9.53125 C 11.507812 -8.675781 12.132812 -8.25 13.09375 -8.25 Z M 13.09375 -8.25 "/></g></g></g><g fill="#000000" fill-opacity="1"><g transform="translate(121.528945, 96.461944)"><g><path d="M 9.6875 0.4375 C 6.675781 0.4375 4.609375 -0.457031 3.484375 -2.25 C 2.367188 -4.050781 1.8125 -6.726562 1.8125 -10.28125 L 1.8125 -40.265625 L 11.5 -40.265625 L 11.5 -12.203125 C 11.5 -11.953125 11.5 -11.265625 11.5 -10.140625 C 11.5 -9.023438 11.671875 -8.238281 12.015625 -7.78125 C 12.367188 -7.320312 12.910156 -7.09375 13.640625 -7.09375 C 14.628906 -7.09375 15.25 -7.503906 15.5 -8.328125 C 15.757812 -9.148438 15.890625 -10.332031 15.890625 -11.875 L 15.890625 -12.203125 L 15.953125 -40.265625 L 25.515625 -40.265625 L 25.515625 0 L 15.890625 0 L 15.890625 -4.296875 C 15.234375 -2.609375 14.460938 -1.394531 13.578125 -0.65625 C 12.703125 0.0703125 11.40625 0.4375 9.6875 0.4375 Z M 9.6875 0.4375 "/></g></g></g><g fill="#000000" fill-opacity="1"><g transform="translate(148.971955, 96.461944)"><g><path d="M 13.203125 0.4375 C 9.054688 0.4375 6.082031 -0.695312 4.28125 -2.96875 C 2.488281 -5.238281 1.59375 -8.628906 1.59375 -13.140625 L 1.59375 -29.3125 C 1.59375 -33.019531 2.65625 -35.84375 4.78125 -37.78125 C 6.90625 -39.726562 9.875 -40.703125 13.6875 -40.703125 C 21.425781 -40.703125 25.296875 -36.90625 25.296875 -29.3125 L 25.296875 -26.40625 C 25.296875 -23.46875 25.257812 -21.082031 25.1875 -19.25 L 11.21875 -19.25 L 11.21875 -11.4375 C 11.21875 -10.039062 11.363281 -8.945312 11.65625 -8.15625 C 11.945312 -7.375 12.570312 -6.984375 13.53125 -6.984375 C 14.257812 -6.984375 14.78125 -7.203125 15.09375 -7.640625 C 15.40625 -8.085938 15.585938 -8.59375 15.640625 -9.15625 C 15.703125 -9.726562 15.734375 -10.5625 15.734375 -11.65625 L 15.734375 -15.5625 L 25.296875 -15.5625 L 25.296875 -13.25 C 25.296875 -8.5625 24.390625 -5.109375 22.578125 -2.890625 C 20.765625 -0.671875 17.640625 0.4375 13.203125 0.4375 Z M 15.734375 -24.03125 L 15.734375 -29.203125 C 15.734375 -32.097656 15.015625 -33.546875 13.578125 -33.546875 C 11.972656 -33.546875 11.171875 -32.097656 11.171875 -29.203125 L 11.171875 -24.03125 Z M 15.734375 -24.03125 "/></g></g></g><g fill="#000000" fill-opacity="1"><g transform="translate(175.810008, 96.461944)"><g><path d="M 1.921875 -40.265625 L 11.546875 -40.265625 L 11.546875 -35.8125 C 12.023438 -37.382812 12.859375 -38.597656 14.046875 -39.453125 C 15.242188 -40.316406 16.722656 -40.75 18.484375 -40.75 L 18.484375 -32.71875 C 17.117188 -32.71875 15.617188 -32.523438 13.984375 -32.140625 C 12.359375 -31.753906 11.546875 -31.304688 11.546875 -30.796875 L 11.546875 0 L 1.921875 0 Z M 1.921875 -40.265625 "/></g></g></g><g fill="#000000" fill-opacity="1"><g transform="translate(194.728635, 96.461944)"><g><path d="M 1.15625 0.609375 L 5.78125 0.609375 C 6.4375 0.609375 6.765625 0.332031 6.765625 -0.21875 C 6.765625 -0.476562 6.742188 -0.679688 6.703125 -0.828125 L 0.4375 -40.265625 L 9.625 -40.265625 L 11.4375 -20.625 L 12.3125 -10.609375 L 13.359375 -20.625 L 15.515625 -40.265625 L 24.75 -40.265625 L 17.265625 2.09375 C 17.015625 3.664062 16.492188 4.828125 15.703125 5.578125 C 14.910156 6.328125 13.671875 6.703125 11.984375 6.703125 L 1.15625 6.703125 Z M 1.15625 0.609375 "/></g></g></g></svg>