<svg xmlns="http://www.w3.org/2000/svg" xmlns:xlink="http://www.w3.org/1999/xlink" width="400" zoomAndPan="magnify" viewBox="0 0 300 299.999988" height="400" preserveAspectRatio="xMidYMid meet" version="1.0"><defs><g/><clipPath id="5aa16aa923"><path d="M 30 23.089844 L 274.273438 23.089844 L 274.273438 270 L 30 270 Z M 30 23.089844 " clip-rule="nonzero"/></clipPath><clipPath id="8605222e93"><path d="M 41.25 23.089844 L 263.023438 23.089844 C 269.234375 23.089844 274.273438 28.125 274.273438 34.339844 L 274.273438 258.75 C 274.273438 264.964844 269.234375 270 263.023438 270 L 41.25 270 C 35.035156 270 30 264.964844 30 258.75 L 30 34.339844 C 30 28.125 35.035156 23.089844 41.25 23.089844 Z M 41.25 23.089844 " clip-rule="nonzero"/></clipPath><clipPath id="0cfd50b7c0"><path d="M 80.113281 113.609375 L 219.613281 113.609375 L 219.613281 253 L 80.113281 253 Z M 80.113281 113.609375 " clip-rule="nonzero"/></clipPath><clipPath id="7328951fb5"><path d="M 80.113281 113.609375 L 151 113.609375 L 151 253 L 80.113281 253 Z M 80.113281 113.609375 " clip-rule="nonzero"/></clipPath></defs><rect x="-30" width="360" fill="#ffffff" y="-29.999999" height="359.999986" fill-opacity="1"/><rect x="-30" width="360" fill="#ffffff" y="-29.999999" height="359.999986" fill-opacity="1"/><g clip-path="url(#5aa16aa923)"><g clip-path="url(#8605222e93)"><path fill="#40b669" d="M 30 23.089844 L 274.273438 23.089844 L 274.273438 270.222656 L 30 270.222656 Z M 30 23.089844 " fill-opacity="1" fill-rule="nonzero"/></g></g><g clip-path="url(#0cfd50b7c0)"><path fill="#ffc44d" d="M 85.300781 113.285156 C 83.90625 113.285156 82.578125 113.886719 81.652344 114.929688 C 80.730469 115.976562 80.300781 117.371094 80.472656 118.753906 L 93.449219 222.570312 C 93.652344 224.183594 94.648438 225.589844 96.101562 226.316406 L 148.011719 252.273438 C 149.378906 252.957031 150.992188 252.957031 152.363281 252.273438 L 204.269531 226.316406 C 205.726562 225.589844 206.71875 224.183594 206.921875 222.570312 L 219.898438 118.753906 C 220.070312 117.371094 219.640625 115.976562 218.71875 114.929688 C 217.792969 113.886719 216.464844 113.285156 215.070312 113.285156 Z M 85.300781 113.285156 " fill-opacity="1" fill-rule="nonzero"/></g><g clip-path="url(#7328951fb5)"><path fill="#e5b045" d="M 150.1875 113.285156 L 150.1875 252.785156 C 149.441406 252.785156 148.695312 252.613281 148.011719 252.273438 L 96.101562 226.316406 C 94.648438 225.589844 93.652344 224.183594 93.449219 222.570312 L 80.472656 118.753906 C 80.300781 117.371094 80.730469 115.976562 81.652344 114.929688 C 82.578125 113.886719 83.90625 113.285156 85.300781 113.285156 Z M 150.1875 113.285156 " fill-opacity="1" fill-rule="evenodd"/></g><path fill="#cfd8dc" d="M 140.453125 132.75 C 143.140625 132.75 145.320312 134.929688 145.320312 137.617188 L 145.320312 221.964844 C 145.320312 223.699219 144.398438 225.304688 142.894531 226.175781 C 141.394531 227.046875 139.546875 227.050781 138.039062 226.191406 L 115.332031 213.214844 C 112.996094 211.882812 112.1875 208.90625 113.519531 206.574219 C 114.851562 204.242188 117.824219 203.429688 120.160156 204.765625 L 135.585938 213.582031 L 135.585938 137.617188 C 135.585938 134.929688 137.765625 132.75 140.453125 132.75 Z M 140.453125 132.75 " fill-opacity="1" fill-rule="evenodd"/><path fill="#eceff1" d="M 155.054688 137.617188 C 155.054688 134.929688 157.234375 132.75 159.921875 132.75 L 192.363281 132.75 C 195.050781 132.75 197.226562 134.929688 197.226562 137.617188 C 197.226562 140.304688 195.050781 142.484375 192.363281 142.484375 L 164.785156 142.484375 L 164.785156 173.726562 L 188.0625 168.550781 C 189.578125 168.214844 191.164062 168.621094 192.332031 169.648438 C 193.496094 170.675781 194.105469 172.195312 193.964844 173.742188 L 190.71875 209.429688 C 190.566406 211.109375 189.558594 212.589844 188.050781 213.339844 L 162.097656 226.316406 C 159.691406 227.519531 156.769531 226.546875 155.566406 224.140625 C 154.367188 221.738281 155.339844 218.816406 157.742188 217.613281 L 181.273438 205.847656 L 183.667969 179.5 L 160.976562 184.542969 C 159.535156 184.863281 158.027344 184.511719 156.875 183.585938 C 155.722656 182.664062 155.054688 181.265625 155.054688 179.792969 Z M 155.054688 137.617188 " fill-opacity="1" fill-rule="evenodd"/><g fill="#000000" fill-opacity="1"><g transform="translate(37.724268, 95.40046)"><g><path d="M 12.359375 0.4375 C 10.242188 0.4375 8.320312 0.0234375 6.59375 -0.796875 C 4.863281 -1.628906 3.503906 -2.847656 2.515625 -4.453125 C 1.523438 -6.054688 1.03125 -7.992188 1.03125 -10.265625 L 1.03125 -21.875 L 10.15625 -21.875 L 10.15625 -10.796875 C 10.15625 -9.972656 10.320312 -9.316406 10.65625 -8.828125 C 11 -8.335938 11.535156 -8.09375 12.265625 -8.09375 C 12.941406 -8.09375 13.453125 -8.316406 13.796875 -8.765625 C 14.140625 -9.222656 14.3125 -9.863281 14.3125 -10.6875 L 14.3125 -46.390625 L 23.65625 -46.390625 L 23.65625 -11.609375 C 23.65625 -9.191406 23.175781 -7.070312 22.21875 -5.25 C 21.269531 -3.4375 19.9375 -2.035156 18.21875 -1.046875 C 16.507812 -0.0546875 14.554688 0.4375 12.359375 0.4375 Z M 12.359375 0.4375 "/></g></g></g><g fill="#000000" fill-opacity="1"><g transform="translate(62.888279, 95.40046)"><g><path d="M 9.078125 0.4375 C 6.015625 0.4375 3.914062 -0.578125 2.78125 -2.609375 C 1.644531 -4.648438 1.078125 -7.5625 1.078125 -11.34375 C 1.078125 -14.4375 1.484375 -16.8125 2.296875 -18.46875 C 3.109375 -20.125 4.234375 -21.335938 5.671875 -22.109375 C 7.109375 -22.890625 9.304688 -23.742188 12.265625 -24.671875 L 14.84375 -25.546875 L 14.84375 -29.59375 C 14.84375 -30.632812 14.632812 -31.429688 14.21875 -31.984375 C 13.8125 -32.546875 13.320312 -32.828125 12.75 -32.828125 C 12.238281 -32.828125 11.796875 -32.59375 11.421875 -32.125 C 11.046875 -31.65625 10.859375 -31.023438 10.859375 -30.234375 L 10.859375 -27.859375 L 1.671875 -27.859375 L 1.671875 -29.15625 C 1.671875 -33.039062 2.578125 -35.8125 4.390625 -37.46875 C 6.210938 -39.125 9.175781 -39.953125 13.28125 -39.953125 C 16.5625 -39.953125 19.226562 -39.097656 21.28125 -37.390625 C 23.332031 -35.679688 24.359375 -33.257812 24.359375 -30.125 L 24.359375 0 L 14.953125 0 L 14.953125 -4.703125 C 14.484375 -3.078125 13.734375 -1.8125 12.703125 -0.90625 C 11.679688 -0.0078125 10.472656 0.4375 9.078125 0.4375 Z M 12.796875 -6.90625 C 13.515625 -6.90625 14.023438 -7.203125 14.328125 -7.796875 C 14.640625 -8.390625 14.796875 -9.117188 14.796875 -9.984375 L 14.796875 -21 C 13.390625 -20.46875 12.351562 -19.785156 11.6875 -18.953125 C 11.019531 -18.128906 10.6875 -16.976562 10.6875 -15.5 L 10.6875 -10.421875 C 10.6875 -8.078125 11.390625 -6.90625 12.796875 -6.90625 Z M 12.796875 -6.90625 "/></g></g></g><g fill="#000000" fill-opacity="1"><g transform="translate(88.970288, 95.40046)"><g><path d="M 6.90625 0 L 0.59375 -39.53125 L 10.046875 -39.53125 L 11.984375 -19.546875 L 12.3125 -13.125 L 12.6875 -19.609375 L 14.84375 -39.53125 L 24.296875 -39.53125 L 17.875 0 Z M 6.90625 0 "/></g></g></g><g fill="#000000" fill-opacity="1"><g transform="translate(113.864299, 95.40046)"><g><path d="M 9.078125 0.4375 C 6.015625 0.4375 3.914062 -0.578125 2.78125 -2.609375 C 1.644531 -4.648438 1.078125 -7.5625 1.078125 -11.34375 C 1.078125 -14.4375 1.484375 -16.8125 2.296875 -18.46875 C 3.109375 -20.125 4.234375 -21.335938 5.671875 -22.109375 C 7.109375 -22.890625 9.304688 -23.742188 12.265625 -24.671875 L 14.84375 -25.546875 L 14.84375 -29.59375 C 14.84375 -30.632812 14.632812 -31.429688 14.21875 -31.984375 C 13.8125 -32.546875 13.320312 -32.828125 12.75 -32.828125 C 12.238281 -32.828125 11.796875 -32.59375 11.421875 -32.125 C 11.046875 -31.65625 10.859375 -31.023438 10.859375 -30.234375 L 10.859375 -27.859375 L 1.671875 -27.859375 L 1.671875 -29.15625 C 1.671875 -33.039062 2.578125 -35.8125 4.390625 -37.46875 C 6.210938 -39.125 9.175781 -39.953125 13.28125 -39.953125 C 16.5625 -39.953125 19.226562 -39.097656 21.28125 -37.390625 C 23.332031 -35.679688 24.359375 -33.257812 24.359375 -30.125 L 24.359375 0 L 14.953125 0 L 14.953125 -4.703125 C 14.484375 -3.078125 13.734375 -1.8125 12.703125 -0.90625 C 11.679688 -0.0078125 10.472656 0.4375 9.078125 0.4375 Z M 12.796875 -6.90625 C 13.515625 -6.90625 14.023438 -7.203125 14.328125 -7.796875 C 14.640625 -8.390625 14.796875 -9.117188 14.796875 -9.984375 L 14.796875 -21 C 13.390625 -20.46875 12.351562 -19.785156 11.6875 -18.953125 C 11.019531 -18.128906 10.6875 -16.976562 10.6875 -15.5 L 10.6875 -10.421875 C 10.6875 -8.078125 11.390625 -6.90625 12.796875 -6.90625 Z M 12.796875 -6.90625 "/></g></g></g><g fill="#000000" fill-opacity="1"><g transform="translate(139.946309, 95.40046)"><g><path d="M 13.0625 0.4375 C 8.851562 0.4375 5.8125 -0.601562 3.9375 -2.6875 C 2.070312 -4.78125 1.140625 -8.148438 1.140625 -12.796875 L 1.140625 -17.328125 L 10.265625 -17.328125 L 10.265625 -11.5625 C 10.265625 -9.25 11 -8.09375 12.46875 -8.09375 C 13.300781 -8.09375 13.878906 -8.335938 14.203125 -8.828125 C 14.523438 -9.316406 14.6875 -10.132812 14.6875 -11.28125 C 14.6875 -12.789062 14.503906 -14.039062 14.140625 -15.03125 C 13.785156 -16.03125 13.328125 -16.859375 12.765625 -17.515625 C 12.210938 -18.179688 11.21875 -19.21875 9.78125 -20.625 L 5.78125 -24.625 C 2.6875 -27.644531 1.140625 -30.992188 1.140625 -34.671875 C 1.140625 -38.628906 2.046875 -41.640625 3.859375 -43.703125 C 5.679688 -45.773438 8.335938 -46.8125 11.828125 -46.8125 C 16.003906 -46.8125 19.007812 -45.703125 20.84375 -43.484375 C 22.675781 -41.273438 23.59375 -37.816406 23.59375 -33.109375 L 14.140625 -33.109375 L 14.09375 -36.28125 C 14.09375 -36.894531 13.921875 -37.378906 13.578125 -37.734375 C 13.234375 -38.097656 12.757812 -38.28125 12.15625 -38.28125 C 11.425781 -38.28125 10.878906 -38.082031 10.515625 -37.6875 C 10.160156 -37.289062 9.984375 -36.753906 9.984375 -36.078125 C 9.984375 -34.554688 10.847656 -32.988281 12.578125 -31.375 L 17.984375 -26.1875 C 19.242188 -24.96875 20.285156 -23.804688 21.109375 -22.703125 C 21.941406 -21.609375 22.609375 -20.3125 23.109375 -18.8125 C 23.617188 -17.320312 23.875 -15.550781 23.875 -13.5 C 23.875 -8.925781 23.035156 -5.457031 21.359375 -3.09375 C 19.679688 -0.738281 16.914062 0.4375 13.0625 0.4375 Z M 13.0625 0.4375 "/></g></g></g><g fill="#000000" fill-opacity="1"><g transform="translate(164.84032, 95.40046)"><g><path d="M 13.765625 0.4375 C 9.453125 0.4375 6.335938 -0.660156 4.421875 -2.859375 C 2.515625 -5.054688 1.5625 -8.421875 1.5625 -12.953125 L 1.5625 -25.15625 C 1.5625 -28.582031 1.929688 -31.363281 2.671875 -33.5 C 3.410156 -35.644531 4.648438 -37.253906 6.390625 -38.328125 C 8.140625 -39.410156 10.5625 -39.953125 13.65625 -39.953125 C 17.039062 -39.953125 19.796875 -39.070312 21.921875 -37.3125 C 24.046875 -35.550781 25.109375 -33.085938 25.109375 -29.921875 L 25.109375 -23.875 L 15.5 -23.875 L 15.5 -29.4375 C 15.5 -30.476562 15.351562 -31.273438 15.0625 -31.828125 C 14.78125 -32.390625 14.222656 -32.671875 13.390625 -32.671875 C 11.835938 -32.671875 11.0625 -31.570312 11.0625 -29.375 L 11.0625 -10.203125 C 11.0625 -9.304688 11.25 -8.539062 11.625 -7.90625 C 12.007812 -7.28125 12.582031 -6.96875 13.34375 -6.96875 C 14.09375 -6.96875 14.65625 -7.269531 15.03125 -7.875 C 15.414062 -8.488281 15.585938 -9.285156 15.546875 -10.265625 L 15.5 -16.90625 L 25.109375 -16.90625 L 25.109375 -9.984375 C 25.109375 -6.742188 24.054688 -4.195312 21.953125 -2.34375 C 19.847656 -0.488281 17.117188 0.4375 13.765625 0.4375 Z M 13.765625 0.4375 "/></g></g></g><g fill="#000000" fill-opacity="1"><g transform="translate(191.354333, 95.40046)"><g><path d="M 1.890625 -39.53125 L 11.34375 -39.53125 L 11.34375 -35.15625 C 11.8125 -36.695312 12.628906 -37.890625 13.796875 -38.734375 C 14.960938 -39.585938 16.410156 -40.015625 18.140625 -40.015625 L 18.140625 -32.125 C 16.804688 -32.125 15.335938 -31.9375 13.734375 -31.5625 C 12.140625 -31.1875 11.34375 -30.742188 11.34375 -30.234375 L 11.34375 0 L 1.890625 0 Z M 1.890625 -39.53125 "/></g></g></g><g fill="#000000" fill-opacity="1"><g transform="translate(209.930335, 95.40046)"><g><path d="M 1.84375 -42.171875 L 1.84375 -48.765625 L 11.28125 -48.765625 L 11.28125 -42.171875 Z M 1.84375 0 L 1.84375 -39.53125 L 11.28125 -39.53125 L 11.28125 0 Z M 1.84375 0 "/></g></g></g><g fill="#000000" fill-opacity="1"><g transform="translate(223.052335, 95.40046)"><g><path d="M 1.890625 -39.53125 L 11.5 -39.53125 L 11.5 -37.421875 C 12.863281 -39.109375 14.753906 -39.953125 17.171875 -39.953125 C 20.234375 -39.953125 22.363281 -38.925781 23.5625 -36.875 C 24.769531 -34.820312 25.375 -31.976562 25.375 -28.34375 L 25.375 -13.71875 C 25.375 -10.625 25.191406 -8.09375 24.828125 -6.125 C 24.472656 -4.164062 23.679688 -2.582031 22.453125 -1.375 C 21.234375 -0.164062 19.382812 0.4375 16.90625 0.4375 C 14.53125 0.4375 12.726562 -0.226562 11.5 -1.5625 L 11.5 7.890625 L 1.890625 7.890625 Z M 13.765625 -6.90625 C 14.628906 -6.90625 15.1875 -7.300781 15.4375 -8.09375 C 15.695312 -8.882812 15.828125 -10.039062 15.828125 -11.5625 L 15.828125 -28.34375 C 15.828125 -29.71875 15.695312 -30.765625 15.4375 -31.484375 C 15.1875 -32.203125 14.613281 -32.5625 13.71875 -32.5625 C 12.238281 -32.5625 11.5 -31.191406 11.5 -28.453125 L 11.5 -11.125 C 11.5 -9.789062 11.648438 -8.753906 11.953125 -8.015625 C 12.265625 -7.273438 12.867188 -6.90625 13.765625 -6.90625 Z M 13.765625 -6.90625 "/></g></g></g><g fill="#000000" fill-opacity="1"><g transform="translate(250.052344, 95.40046)"><g><path d="M 10.046875 0.4375 C 7.554688 0.4375 5.84375 -0.0820312 4.90625 -1.125 C 3.976562 -2.175781 3.515625 -3.851562 3.515625 -6.15625 L 3.515625 -30.828125 L 0.859375 -30.828125 L 0.859375 -38.015625 L 3.515625 -38.015625 L 3.515625 -46.390625 L 12.6875 -46.390625 L 12.6875 -38.015625 L 15.390625 -38.015625 L 15.390625 -30.828125 L 12.6875 -30.828125 L 12.6875 -8.640625 C 12.6875 -7.953125 12.738281 -7.445312 12.84375 -7.125 C 12.957031 -6.800781 13.25 -6.640625 13.71875 -6.640625 C 14.070312 -6.640625 14.410156 -6.65625 14.734375 -6.6875 C 15.066406 -6.726562 15.285156 -6.75 15.390625 -6.75 L 15.390625 -0.265625 C 14.847656 -0.117188 14.0625 0.03125 13.03125 0.1875 C 12.007812 0.351562 11.015625 0.4375 10.046875 0.4375 Z M 10.046875 0.4375 "/></g></g></g></svg>