<svg xmlns="http://www.w3.org/2000/svg" xmlns:xlink="http://www.w3.org/1999/xlink" width="1280" zoomAndPan="magnify" viewBox="0 0 960 599.999999" height="800" preserveAspectRatio="xMidYMid meet" version="1.0"><defs><clipPath id="a0e8332258"><path d="M 297.074219 82.464844 L 718.574219 82.464844 L 718.574219 503.964844 L 297.074219 503.964844 Z M 297.074219 82.464844 " clip-rule="nonzero"/></clipPath></defs><g clip-path="url(#a0e8332258)"><path fill="#0277b5" d="M 683.359375 82.464844 L 332.496094 82.464844 C 313.097656 82.464844 297.496094 98.277344 297.496094 117.464844 L 297.496094 468.960938 C 297.496094 488.359375 313.308594 503.964844 332.496094 503.964844 L 683.148438 503.964844 C 702.550781 503.964844 718.152344 488.152344 718.152344 468.960938 L 718.152344 117.464844 C 718.363281 98.277344 702.761719 82.464844 683.359375 82.464844 Z M 422.109375 430.164062 L 359.910156 430.164062 L 359.910156 243.347656 L 422.109375 243.347656 Z M 390.90625 220.785156 C 371.296875 220.785156 355.480469 204.972656 355.480469 185.363281 C 355.480469 165.753906 371.296875 149.9375 390.90625 149.9375 C 410.515625 149.9375 426.328125 165.753906 426.328125 185.363281 C 426.328125 204.972656 410.515625 220.785156 390.90625 220.785156 Z M 656.160156 430.164062 L 593.746094 430.164062 L 592.273438 319.253906 C 592.273438 319.253906 593.746094 289.734375 561.488281 289.945312 C 529.226562 290.15625 524.796875 319.253906 524.796875 319.253906 L 524.796875 430.164062 L 461.960938 430.164062 L 461.960938 243.347656 L 522.265625 243.347656 L 522.265625 269.070312 C 522.265625 269.070312 524.796875 260.636719 538.714844 250.726562 C 552.628906 240.816406 575.613281 238.707031 585.523438 239.128906 C 595.433594 239.550781 608.929688 237.863281 631.492188 253.46875 C 655.738281 270.125 656.371094 313.773438 656.371094 313.773438 Z M 656.160156 430.164062 " fill-opacity="1" fill-rule="nonzero"/></g></svg>