<svg xmlns="http://www.w3.org/2000/svg" xmlns:xlink="http://www.w3.org/1999/xlink" width="400" zoomAndPan="magnify" viewBox="0 0 300 299.999988" height="400" preserveAspectRatio="xMidYMid meet" version="1.0"><defs><g/><clipPath id="6e66f614a1"><path d="M 25.726562 23.335938 L 270 23.335938 L 270 270.46875 L 25.726562 270.46875 Z M 25.726562 23.335938 " clip-rule="nonzero"/></clipPath><clipPath id="9340fd7f3e"><path d="M 36.976562 23.335938 L 258.75 23.335938 C 264.964844 23.335938 270 28.371094 270 34.585938 L 270 258.996094 C 270 265.210938 264.964844 270.246094 258.75 270.246094 L 36.976562 270.246094 C 30.765625 270.246094 25.726562 265.210938 25.726562 258.996094 L 25.726562 34.585938 C 25.726562 28.371094 30.765625 23.335938 36.976562 23.335938 Z M 36.976562 23.335938 " clip-rule="nonzero"/></clipPath><clipPath id="49c6ad5e76"><path d="M 99 176 L 233 176 L 233 227.792969 L 99 227.792969 Z M 99 176 " clip-rule="nonzero"/></clipPath><clipPath id="90e85eedc7"><path d="M 154 146.792969 L 202 146.792969 L 202 227.792969 L 154 227.792969 Z M 154 146.792969 " clip-rule="nonzero"/></clipPath><clipPath id="9a7125acd4"><path d="M 99 176 L 146 176 L 146 227.792969 L 99 227.792969 Z M 99 176 " clip-rule="nonzero"/></clipPath><clipPath id="4d1da96fc4"><path d="M 48 176 L 252.894531 176 L 252.894531 227.792969 L 48 227.792969 Z M 48 176 " clip-rule="nonzero"/></clipPath></defs><rect x="-30" width="360" fill="#ffffff" y="-29.999999" height="359.999986" fill-opacity="1"/><rect x="-30" width="360" fill="#ffffff" y="-29.999999" height="359.999986" fill-opacity="1"/><g clip-path="url(#6e66f614a1)"><g clip-path="url(#9340fd7f3e)"><path fill="#ffc44d" d="M 25.726562 23.335938 L 270 23.335938 L 270 270.46875 L 25.726562 270.46875 Z M 25.726562 23.335938 " fill-opacity="1" fill-rule="nonzero"/></g></g><g clip-path="url(#49c6ad5e76)"><path fill="#388e3c" d="M 121.261719 176.996094 L 100.40625 188.507812 C 99.625 188.9375 99.144531 189.734375 99.144531 190.59375 L 99.144531 213.636719 C 99.144531 214.496094 99.625 215.289062 100.40625 215.722656 L 121.265625 227.246094 C 122.042969 227.671875 123.007812 227.671875 123.785156 227.246094 L 144.640625 215.722656 C 145.414062 215.289062 145.894531 214.496094 145.894531 213.636719 L 145.894531 190.59375 C 145.894531 189.734375 145.414062 188.941406 144.628906 188.507812 L 123.78125 176.996094 C 123.390625 176.777344 122.953125 176.671875 122.519531 176.671875 C 122.082031 176.671875 121.648438 176.777344 121.253906 176.996094 M 228.558594 197.738281 L 225.082031 199.652344 C 224.949219 199.726562 224.875 199.855469 224.875 200 L 224.875 203.84375 C 224.875 203.988281 224.953125 204.121094 225.082031 204.191406 L 228.558594 206.113281 C 228.691406 206.183594 228.847656 206.183594 228.980469 206.113281 L 232.457031 204.191406 C 232.582031 204.121094 232.664062 203.988281 232.664062 203.84375 L 232.664062 200 C 232.664062 199.855469 232.582031 199.726562 232.453125 199.652344 L 228.976562 197.738281 C 228.910156 197.699219 228.839844 197.683594 228.765625 197.683594 C 228.695312 197.683594 228.621094 197.699219 228.558594 197.738281 " fill-opacity="1" fill-rule="nonzero"/></g><g clip-path="url(#90e85eedc7)"><path fill="#37474f" d="M 200.085938 152.574219 L 189.929688 146.921875 C 189.613281 146.746094 189.222656 146.75 188.90625 146.9375 C 188.59375 147.121094 188.398438 147.457031 188.398438 147.820312 L 188.390625 181.96875 L 179.03125 176.800781 C 178.640625 176.582031 178.199219 176.476562 177.769531 176.476562 C 177.335938 176.476562 176.894531 176.582031 176.503906 176.800781 L 176.507812 176.800781 L 155.65625 188.3125 C 154.871094 188.742188 154.394531 189.539062 154.394531 190.394531 L 154.394531 213.4375 C 154.394531 214.296875 154.871094 215.089844 155.65625 215.523438 L 176.515625 227.046875 C 177.292969 227.472656 178.257812 227.472656 179.035156 227.046875 L 199.886719 215.523438 C 200.664062 215.09375 201.140625 214.296875 201.140625 213.4375 L 201.140625 154.375 C 201.140625 153.628906 200.734375 152.941406 200.085938 152.574219 Z M 187.824219 208.105469 L 178.34375 213.34375 C 177.992188 213.539062 177.554688 213.539062 177.203125 213.34375 L 167.71875 208.105469 C 167.359375 207.910156 167.144531 207.546875 167.144531 207.15625 L 167.144531 196.679688 C 167.144531 196.289062 167.359375 195.929688 167.714844 195.730469 L 177.199219 190.496094 L 177.195312 190.496094 C 177.371094 190.398438 177.566406 190.351562 177.769531 190.351562 C 177.96875 190.351562 178.164062 190.40625 178.339844 190.496094 L 187.820312 195.730469 C 188.175781 195.929688 188.390625 196.292969 188.390625 196.683594 L 188.390625 207.160156 C 188.390625 207.546875 188.175781 207.910156 187.824219 208.105469 Z M 187.824219 208.105469 " fill-opacity="1" fill-rule="nonzero"/></g><g clip-path="url(#9a7125acd4)"><path fill="#2e7d32" d="M 121.261719 176.996094 L 99.144531 213.636719 C 99.144531 214.496094 99.625 215.289062 100.40625 215.722656 L 121.265625 227.246094 C 122.042969 227.671875 123.007812 227.671875 123.785156 227.246094 L 145.894531 190.59375 C 145.894531 189.734375 145.414062 188.941406 144.628906 188.507812 L 123.78125 176.996094 C 123.390625 176.777344 122.953125 176.671875 122.519531 176.671875 C 122.082031 176.671875 121.648438 176.777344 121.253906 176.996094 " fill-opacity="1" fill-rule="nonzero"/><path fill="#4caf50" d="M 121.261719 176.996094 L 100.40625 188.507812 C 99.625 188.9375 99.144531 189.734375 99.144531 190.59375 L 121.261719 227.246094 C 122.039062 227.671875 123.003906 227.671875 123.78125 227.246094 L 144.636719 215.722656 C 145.414062 215.289062 145.894531 214.496094 145.894531 213.636719 L 123.78125 176.996094 C 123.390625 176.777344 122.953125 176.671875 122.519531 176.671875 C 122.082031 176.671875 121.648438 176.777344 121.253906 176.996094 " fill-opacity="1" fill-rule="nonzero"/></g><g clip-path="url(#4d1da96fc4)"><path fill="#37474f" d="M 250.878906 188.3125 L 230.03125 176.800781 C 229.636719 176.582031 229.199219 176.476562 228.765625 176.476562 C 228.332031 176.476562 227.894531 176.582031 227.503906 176.800781 L 227.507812 176.800781 L 206.65625 188.3125 C 205.875 188.742188 205.390625 189.554688 205.390625 190.445312 L 205.390625 213.394531 C 205.390625 214.28125 205.875 215.097656 206.65625 215.527344 L 227.511719 227.050781 C 228.296875 227.480469 229.25 227.480469 230.035156 227.050781 L 239.652344 221.734375 C 240.53125 221.246094 240.527344 219.988281 239.644531 219.503906 L 218.714844 208.109375 C 218.363281 207.910156 218.140625 207.542969 218.140625 207.144531 L 218.140625 196.683594 C 218.140625 196.296875 218.355469 195.933594 218.695312 195.746094 L 228.195312 190.507812 L 228.1875 190.507812 C 228.367188 190.410156 228.5625 190.363281 228.761719 190.363281 C 228.960938 190.363281 229.15625 190.414062 229.335938 190.507812 L 238.835938 195.753906 C 239.175781 195.9375 239.386719 196.300781 239.386719 196.6875 L 239.386719 205.222656 C 239.386719 205.585938 239.582031 205.925781 239.902344 206.109375 C 240.222656 206.285156 240.613281 206.285156 240.929688 206.105469 L 251.121094 200.195312 C 251.75 199.832031 252.140625 199.15625 252.140625 198.429688 L 252.140625 190.457031 C 252.140625 189.558594 251.65625 188.742188 250.878906 188.3125 Z M 93.632812 188.3125 L 72.78125 176.800781 C 72.390625 176.582031 71.953125 176.476562 71.519531 176.476562 C 71.085938 176.476562 70.648438 176.582031 70.257812 176.800781 L 70.261719 176.800781 L 49.40625 188.3125 C 48.628906 188.742188 48.144531 189.554688 48.144531 190.445312 L 48.144531 222.105469 C 48.144531 222.46875 48.339844 222.808594 48.65625 222.992188 C 48.976562 223.167969 49.367188 223.167969 49.6875 222.988281 L 59.878906 217.078125 C 60.507812 216.714844 60.894531 216.039062 60.894531 215.3125 L 60.894531 196.679688 C 60.894531 196.289062 61.105469 195.929688 61.445312 195.742188 L 70.945312 190.5 C 71.125 190.40625 71.320312 190.359375 71.519531 190.359375 C 71.71875 190.359375 71.914062 190.410156 72.09375 190.5 L 81.589844 195.746094 C 81.929688 195.933594 82.144531 196.292969 82.144531 196.683594 L 82.144531 215.316406 C 82.144531 216.042969 82.53125 216.71875 83.164062 217.082031 L 93.355469 222.992188 C 93.671875 223.171875 94.066406 223.171875 94.382812 222.996094 C 94.699219 222.808594 94.894531 222.46875 94.894531 222.105469 L 94.894531 190.449219 C 94.894531 189.558594 94.410156 188.742188 93.632812 188.3125 Z M 93.632812 188.3125 " fill-opacity="1" fill-rule="nonzero"/></g><g fill="#000000" fill-opacity="1"><g transform="translate(66.792328, 111.795226)"><g><path d="M 2.09375 0 L 2.09375 -47.25 L 11.828125 -47.25 L 16.171875 -24.640625 L 16.171875 -47.25 L 25.296875 -47.25 L 25.296875 0 L 16.0625 0 L 11.328125 -23.65625 L 11.328125 0 Z M 2.09375 0 "/></g></g></g><g fill="#000000" fill-opacity="1"><g transform="translate(94.180337, 111.795226)"><g><path d="M 13.640625 0.4375 C 5.609375 0.4375 1.59375 -3.722656 1.59375 -12.046875 L 1.59375 -28.21875 C 1.59375 -32.03125 2.664062 -35.0625 4.8125 -37.3125 C 6.957031 -39.570312 9.898438 -40.703125 13.640625 -40.703125 C 17.378906 -40.703125 20.320312 -39.570312 22.46875 -37.3125 C 24.613281 -35.0625 25.6875 -32.03125 25.6875 -28.21875 L 25.6875 -12.046875 C 25.6875 -3.722656 21.671875 0.4375 13.640625 0.4375 Z M 13.640625 -6.984375 C 14.410156 -6.984375 14.976562 -7.257812 15.34375 -7.8125 C 15.707031 -8.363281 15.890625 -9.113281 15.890625 -10.0625 L 15.890625 -29.75 C 15.890625 -32.101562 15.140625 -33.28125 13.640625 -33.28125 C 12.140625 -33.28125 11.390625 -32.101562 11.390625 -29.75 L 11.390625 -10.0625 C 11.390625 -9.113281 11.570312 -8.363281 11.9375 -7.8125 C 12.300781 -7.257812 12.867188 -6.984375 13.640625 -6.984375 Z M 13.640625 -6.984375 "/></g></g></g><g fill="#000000" fill-opacity="1"><g transform="translate(121.513358, 111.795226)"><g><path d="M 9.84375 0.4375 C 7.5 0.4375 5.726562 -0.117188 4.53125 -1.234375 C 3.34375 -2.359375 2.554688 -3.84375 2.171875 -5.6875 C 1.785156 -7.539062 1.59375 -9.914062 1.59375 -12.8125 L 1.703125 -30.96875 C 1.703125 -33.820312 2.425781 -36.15625 3.875 -37.96875 C 5.320312 -39.789062 7.367188 -40.703125 10.015625 -40.703125 C 12.617188 -40.703125 14.5625 -39.835938 15.84375 -38.109375 L 15.84375 -47.515625 L 25.46875 -47.515625 L 25.46875 0 L 15.84375 0 L 15.84375 -4.296875 C 15.289062 -2.710938 14.546875 -1.523438 13.609375 -0.734375 C 12.671875 0.046875 11.414062 0.4375 9.84375 0.4375 Z M 13.53125 -7.09375 C 14.476562 -7.09375 15.097656 -7.5625 15.390625 -8.5 C 15.691406 -9.4375 15.84375 -10.691406 15.84375 -12.265625 L 15.84375 -29.09375 C 15.84375 -30.269531 15.675781 -31.257812 15.34375 -32.0625 C 15.007812 -32.875 14.421875 -33.28125 13.578125 -33.28125 C 12.628906 -33.28125 12 -32.898438 11.6875 -32.140625 C 11.375 -31.390625 11.21875 -30.375 11.21875 -29.09375 L 11.21875 -12.15625 C 11.21875 -8.78125 11.988281 -7.09375 13.53125 -7.09375 Z M 13.53125 -7.09375 "/></g></g></g><g fill="#000000" fill-opacity="1"><g transform="translate(148.901368, 111.795226)"><g><path d="M 13.203125 0.4375 C 9.054688 0.4375 6.082031 -0.695312 4.28125 -2.96875 C 2.488281 -5.238281 1.59375 -8.628906 1.59375 -13.140625 L 1.59375 -29.3125 C 1.59375 -33.019531 2.65625 -35.84375 4.78125 -37.78125 C 6.90625 -39.726562 9.875 -40.703125 13.6875 -40.703125 C 21.425781 -40.703125 25.296875 -36.90625 25.296875 -29.3125 L 25.296875 -26.40625 C 25.296875 -23.46875 25.257812 -21.082031 25.1875 -19.25 L 11.21875 -19.25 L 11.21875 -11.4375 C 11.21875 -10.039062 11.363281 -8.945312 11.65625 -8.15625 C 11.945312 -7.375 12.570312 -6.984375 13.53125 -6.984375 C 14.257812 -6.984375 14.78125 -7.203125 15.09375 -7.640625 C 15.40625 -8.085938 15.585938 -8.59375 15.640625 -9.15625 C 15.703125 -9.726562 15.734375 -10.5625 15.734375 -11.65625 L 15.734375 -15.5625 L 25.296875 -15.5625 L 25.296875 -13.25 C 25.296875 -8.5625 24.390625 -5.109375 22.578125 -2.890625 C 20.765625 -0.671875 17.640625 0.4375 13.203125 0.4375 Z M 15.734375 -24.03125 L 15.734375 -29.203125 C 15.734375 -32.097656 15.015625 -33.546875 13.578125 -33.546875 C 11.972656 -33.546875 11.171875 -32.097656 11.171875 -29.203125 L 11.171875 -24.03125 Z M 15.734375 -24.03125 "/></g></g></g><g fill="#000000" fill-opacity="1"><g transform="translate(175.73942, 111.795226)"><g><path d="M 1.484375 0 L 1.484375 -8.03125 L 11.109375 -8.03125 L 11.109375 0 Z M 1.484375 0 "/></g></g></g><g fill="#000000" fill-opacity="1"><g transform="translate(188.333505, 111.795226)"><g><path d="M 2.96875 -42.953125 L 2.96875 -49.671875 L 12.59375 -49.671875 L 12.59375 -42.953125 Z M 5 4.734375 C 2.914062 4.734375 1.5625 4.492188 0.9375 4.015625 L 0.9375 -2.421875 C 1.113281 -2.347656 1.40625 -2.3125 1.8125 -2.3125 C 2.289062 -2.3125 2.601562 -2.46875 2.75 -2.78125 C 2.894531 -3.09375 2.96875 -3.5625 2.96875 -4.1875 L 2.96875 -40.265625 L 12.59375 -40.265625 L 12.59375 -4.453125 C 12.59375 -1.484375 11.988281 0.785156 10.78125 2.359375 C 9.570312 3.941406 7.644531 4.734375 5 4.734375 Z M 5 4.734375 "/></g></g></g><g fill="#000000" fill-opacity="1"><g transform="translate(202.797451, 111.795226)"><g><path d="M 12.984375 0.4375 C 5.023438 0.4375 1.046875 -3.59375 1.046875 -11.65625 L 1.09375 -14.84375 L 10.71875 -14.84375 L 10.78125 -10.125 C 10.78125 -9.164062 10.960938 -8.4375 11.328125 -7.9375 C 11.691406 -7.445312 12.296875 -7.203125 13.140625 -7.203125 C 14.421875 -7.203125 15.0625 -8.25 15.0625 -10.34375 C 15.0625 -11.882812 14.757812 -13.09375 14.15625 -13.96875 C 13.550781 -14.851562 12.59375 -15.789062 11.28125 -16.78125 L 6.15625 -20.734375 C 4.394531 -22.085938 3.128906 -23.488281 2.359375 -24.9375 C 1.585938 -26.382812 1.203125 -28.429688 1.203125 -31.078125 C 1.203125 -33.128906 1.742188 -34.878906 2.828125 -36.328125 C 3.910156 -37.773438 5.347656 -38.863281 7.140625 -39.59375 C 8.941406 -40.332031 10.941406 -40.703125 13.140625 -40.703125 C 20.953125 -40.703125 24.859375 -36.816406 24.859375 -29.046875 L 24.859375 -28.265625 L 14.90625 -28.265625 L 14.90625 -29.8125 C 14.90625 -30.757812 14.75 -31.570312 14.4375 -32.25 C 14.125 -32.9375 13.601562 -33.28125 12.875 -33.28125 C 12.207031 -33.28125 11.695312 -33.085938 11.34375 -32.703125 C 11 -32.316406 10.828125 -31.789062 10.828125 -31.125 C 10.828125 -29.664062 11.398438 -28.53125 12.546875 -27.71875 L 18.484375 -23.375 C 20.609375 -21.800781 22.238281 -20.085938 23.375 -18.234375 C 24.507812 -16.378906 25.078125 -14.039062 25.078125 -11.21875 C 25.078125 -7.476562 24.015625 -4.597656 21.890625 -2.578125 C 19.765625 -0.566406 16.796875 0.4375 12.984375 0.4375 Z M 12.984375 0.4375 "/></g></g></g></svg>