<svg xmlns="http://www.w3.org/2000/svg" xmlns:xlink="http://www.w3.org/1999/xlink" width="400" zoomAndPan="magnify" viewBox="0 0 300 299.999988" height="400" preserveAspectRatio="xMidYMid meet" version="1.0"><defs><g/><clipPath id="7b5cd628de"><path d="M 30 23.089844 L 274.273438 23.089844 L 274.273438 270 L 30 270 Z M 30 23.089844 " clip-rule="nonzero"/></clipPath><clipPath id="fea3eb17d7"><path d="M 41.25 23.089844 L 263.023438 23.089844 C 269.234375 23.089844 274.273438 28.125 274.273438 34.339844 L 274.273438 258.75 C 274.273438 264.964844 269.234375 270 263.023438 270 L 41.25 270 C 35.035156 270 30 264.964844 30 258.75 L 30 34.339844 C 30 28.125 35.035156 23.089844 41.25 23.089844 Z M 41.25 23.089844 " clip-rule="nonzero"/></clipPath><clipPath id="96675acf5c"><path d="M 81.511719 117 L 222.511719 117 L 222.511719 244 L 81.511719 244 Z M 81.511719 117 " clip-rule="nonzero"/></clipPath></defs><rect x="-30" width="360" fill="#ffffff" y="-29.999999" height="359.999986" fill-opacity="1"/><rect x="-30" width="360" fill="#ffffff" y="-29.999999" height="359.999986" fill-opacity="1"/><g clip-path="url(#7b5cd628de)"><g clip-path="url(#fea3eb17d7)"><path fill="#e75b6d" d="M 30 23.089844 L 274.273438 23.089844 L 274.273438 270.222656 L 30 270.222656 Z M 30 23.089844 " fill-opacity="1" fill-rule="nonzero"/></g></g><g clip-path="url(#96675acf5c)"><path fill="#00d8ff" d="M 197.394531 158.429688 C 195.894531 157.914062 194.378906 157.4375 192.855469 157 C 193.113281 155.953125 193.347656 154.921875 193.558594 153.90625 C 196.992188 137.242188 194.746094 123.820312 187.078125 119.398438 C 179.726562 115.160156 167.703125 119.578125 155.558594 130.144531 C 154.359375 131.1875 153.191406 132.257812 152.046875 133.363281 C 151.28125 132.628906 150.503906 131.910156 149.710938 131.207031 C 136.984375 119.910156 124.226562 115.152344 116.566406 119.582031 C 109.222656 123.832031 107.046875 136.453125 110.140625 152.246094 C 110.445312 153.808594 110.792969 155.363281 111.179688 156.910156 C 109.375 157.425781 107.632812 157.96875 105.964844 158.550781 C 91.042969 163.75 81.511719 171.902344 81.511719 180.351562 C 81.511719 189.082031 91.742188 197.839844 107.285156 203.148438 C 108.546875 203.578125 109.816406 203.976562 111.09375 204.339844 C 110.679688 206.007812 110.3125 207.683594 109.988281 209.371094 C 107.042969 224.886719 109.34375 237.207031 116.667969 241.433594 C 124.234375 245.792969 136.9375 241.3125 149.300781 230.507812 C 150.304688 229.628906 151.285156 228.722656 152.242188 227.796875 C 153.480469 228.992188 154.75 230.148438 156.050781 231.273438 C 168.03125 241.574219 179.859375 245.734375 187.179688 241.5 C 194.738281 237.125 197.195312 223.886719 194.007812 207.785156 C 193.753906 206.523438 193.472656 205.265625 193.160156 204.019531 C 194.054688 203.753906 194.929688 203.484375 195.78125 203.199219 C 211.941406 197.851562 222.453125 189.199219 222.453125 180.351562 C 222.453125 171.871094 212.613281 163.664062 197.394531 158.429688 Z M 193.890625 197.488281 C 193.117188 197.742188 192.328125 197.988281 191.523438 198.230469 C 189.738281 192.585938 187.332031 186.582031 184.386719 180.382812 C 187.195312 174.328125 189.511719 168.40625 191.242188 162.796875 C 192.6875 163.214844 194.085938 163.652344 195.433594 164.117188 C 208.476562 168.605469 216.429688 175.242188 216.429688 180.351562 C 216.429688 185.796875 207.839844 192.867188 193.890625 197.488281 Z M 188.101562 208.953125 C 189.511719 216.074219 189.710938 222.511719 188.777344 227.546875 C 187.9375 232.066406 186.25 235.082031 184.164062 236.292969 C 179.722656 238.859375 170.222656 235.519531 159.980469 226.710938 C 158.769531 225.664062 157.585938 224.589844 156.433594 223.480469 C 160.40625 219.136719 164.375 214.09375 168.25 208.488281 C 175.0625 207.882812 181.5 206.894531 187.335938 205.546875 C 187.617188 206.675781 187.871094 207.8125 188.101562 208.953125 Z M 129.5625 235.847656 C 125.222656 237.378906 121.765625 237.421875 119.675781 236.21875 C 115.230469 233.65625 113.382812 223.761719 115.90625 210.492188 C 116.203125 208.921875 116.546875 207.363281 116.933594 205.816406 C 122.707031 207.089844 129.097656 208.007812 135.925781 208.5625 C 139.824219 214.046875 143.910156 219.089844 148.023438 223.503906 C 147.148438 224.347656 146.253906 225.171875 145.339844 225.976562 C 139.871094 230.753906 134.390625 234.140625 129.5625 235.847656 Z M 109.234375 197.457031 C 102.359375 195.105469 96.683594 192.054688 92.796875 188.726562 C 89.300781 185.734375 87.535156 182.761719 87.535156 180.351562 C 87.535156 175.222656 95.183594 168.679688 107.945312 164.234375 C 109.496094 163.695312 111.117188 163.1875 112.796875 162.707031 C 114.5625 168.441406 116.875 174.4375 119.667969 180.5 C 116.839844 186.652344 114.492188 192.742188 112.710938 198.542969 C 111.542969 198.210938 110.382812 197.847656 109.234375 197.457031 Z M 116.046875 151.089844 C 113.398438 137.558594 115.15625 127.351562 119.585938 124.792969 C 124.300781 122.0625 134.726562 125.953125 145.714844 135.707031 C 146.433594 136.34375 147.136719 136.996094 147.828125 137.65625 C 143.734375 142.050781 139.6875 147.054688 135.824219 152.507812 C 129.195312 153.121094 122.851562 154.109375 117.015625 155.429688 C 116.65625 153.992188 116.335938 152.542969 116.046875 151.089844 Z M 176.84375 166.09375 C 175.464844 163.714844 174.035156 161.367188 172.554688 159.046875 C 177.054688 159.617188 181.363281 160.371094 185.40625 161.292969 C 184.191406 165.183594 182.679688 169.253906 180.898438 173.425781 C 179.59375 170.953125 178.242188 168.511719 176.84375 166.09375 Z M 152.050781 141.957031 C 154.828125 144.964844 157.609375 148.324219 160.34375 151.964844 C 154.792969 151.703125 149.234375 151.703125 143.6875 151.960938 C 146.425781 148.351562 149.230469 145 152.050781 141.957031 Z M 127.097656 166.136719 C 125.714844 168.53125 124.390625 170.960938 123.121094 173.417969 C 121.367188 169.261719 119.867188 165.175781 118.640625 161.230469 C 122.664062 160.332031 126.953125 159.59375 131.421875 159.039062 C 129.925781 161.367188 128.484375 163.734375 127.097656 166.132812 Z M 131.546875 202.097656 C 126.933594 201.582031 122.578125 200.882812 118.558594 200.007812 C 119.804688 195.992188 121.335938 191.820312 123.128906 187.574219 C 124.402344 190.035156 125.734375 192.464844 127.125 194.863281 C 128.550781 197.328125 130.03125 199.742188 131.546875 202.097656 Z M 152.214844 219.171875 C 149.363281 216.09375 146.515625 212.691406 143.738281 209.027344 C 146.433594 209.132812 149.1875 209.1875 151.984375 209.1875 C 154.855469 209.1875 157.695312 209.125 160.492188 209 C 157.746094 212.726562 154.976562 216.136719 152.214844 219.171875 Z M 180.953125 187.355469 C 182.835938 191.648438 184.425781 195.800781 185.6875 199.75 C 181.601562 200.679688 177.1875 201.429688 172.539062 201.988281 C 174.027344 199.628906 175.472656 197.238281 176.867188 194.820312 C 178.285156 192.363281 179.648438 189.875 180.953125 187.355469 Z M 171.652344 191.8125 C 169.515625 195.519531 167.261719 199.15625 164.890625 202.71875 C 160.59375 203.023438 156.289062 203.171875 151.984375 203.171875 C 147.597656 203.171875 143.332031 203.035156 139.222656 202.769531 C 136.789062 199.214844 134.492188 195.574219 132.332031 191.847656 C 130.1875 188.140625 128.179688 184.355469 126.320312 180.496094 C 128.175781 176.636719 130.175781 172.847656 132.316406 169.140625 C 134.453125 165.429688 136.734375 161.804688 139.148438 158.265625 C 143.339844 157.949219 147.636719 157.785156 151.980469 157.785156 L 151.984375 157.785156 C 156.347656 157.785156 160.648438 157.953125 164.839844 158.269531 C 167.230469 161.800781 169.496094 165.417969 171.632812 169.109375 C 173.777344 172.808594 175.804688 176.578125 177.707031 180.410156 C 175.824219 184.28125 173.804688 188.085938 171.652344 191.8125 Z M 184.070312 124.613281 C 188.789062 127.332031 190.625 138.304688 187.660156 152.691406 C 187.472656 153.609375 187.257812 154.542969 187.027344 155.492188 C 181.179688 154.140625 174.832031 153.140625 168.183594 152.515625 C 164.308594 147.003906 160.296875 141.992188 156.269531 137.652344 C 157.324219 136.636719 158.40625 135.644531 159.511719 134.683594 C 169.914062 125.632812 179.640625 122.058594 184.070312 124.613281 Z M 151.984375 167.773438 C 158.933594 167.773438 164.566406 173.40625 164.566406 180.351562 C 164.566406 187.300781 158.933594 192.933594 151.984375 192.933594 C 145.03125 192.933594 139.398438 187.300781 139.398438 180.351562 C 139.398438 173.40625 145.03125 167.773438 151.984375 167.773438 Z M 151.984375 167.773438 " fill-opacity="1" fill-rule="nonzero"/></g><g fill="#000000" fill-opacity="1"><g transform="translate(63.833641, 89.853626)"><g><path d="M 2.09375 -47.25 L 16.609375 -47.25 C 18.921875 -47.25 20.707031 -46.722656 21.96875 -45.671875 C 23.238281 -44.628906 24.09375 -43.160156 24.53125 -41.265625 C 24.96875 -39.378906 25.1875 -36.972656 25.1875 -34.046875 C 25.1875 -31.367188 24.835938 -29.273438 24.140625 -27.765625 C 23.441406 -26.265625 22.234375 -25.222656 20.515625 -24.640625 C 21.941406 -24.347656 22.972656 -23.632812 23.609375 -22.5 C 24.253906 -21.363281 24.578125 -19.820312 24.578125 -17.875 L 24.46875 0 L 15.234375 0 L 15.234375 -18.484375 C 15.234375 -19.796875 14.972656 -20.632812 14.453125 -21 C 13.941406 -21.375 13.007812 -21.5625 11.65625 -21.5625 L 11.65625 0 L 2.09375 0 Z M 13.96875 -29.75 C 15.289062 -29.75 15.953125 -31.179688 15.953125 -34.046875 C 15.953125 -35.296875 15.894531 -36.226562 15.78125 -36.84375 C 15.675781 -37.46875 15.472656 -37.898438 15.171875 -38.140625 C 14.878906 -38.378906 14.460938 -38.5 13.921875 -38.5 L 11.71875 -38.5 L 11.71875 -29.75 Z M 13.96875 -29.75 "/></g></g></g><g fill="#000000" fill-opacity="1"><g transform="translate(90.066736, 89.853626)"><g><path d="M 13.203125 0.4375 C 9.054688 0.4375 6.082031 -0.695312 4.28125 -2.96875 C 2.488281 -5.238281 1.59375 -8.628906 1.59375 -13.140625 L 1.59375 -29.3125 C 1.59375 -33.019531 2.65625 -35.84375 4.78125 -37.78125 C 6.90625 -39.726562 9.875 -40.703125 13.6875 -40.703125 C 21.425781 -40.703125 25.296875 -36.90625 25.296875 -29.3125 L 25.296875 -26.40625 C 25.296875 -23.46875 25.257812 -21.082031 25.1875 -19.25 L 11.21875 -19.25 L 11.21875 -11.4375 C 11.21875 -10.039062 11.363281 -8.945312 11.65625 -8.15625 C 11.945312 -7.375 12.570312 -6.984375 13.53125 -6.984375 C 14.257812 -6.984375 14.78125 -7.203125 15.09375 -7.640625 C 15.40625 -8.085938 15.585938 -8.59375 15.640625 -9.15625 C 15.703125 -9.726562 15.734375 -10.5625 15.734375 -11.65625 L 15.734375 -15.5625 L 25.296875 -15.5625 L 25.296875 -13.25 C 25.296875 -8.5625 24.390625 -5.109375 22.578125 -2.890625 C 20.765625 -0.671875 17.640625 0.4375 13.203125 0.4375 Z M 15.734375 -24.03125 L 15.734375 -29.203125 C 15.734375 -32.097656 15.015625 -33.546875 13.578125 -33.546875 C 11.972656 -33.546875 11.171875 -32.097656 11.171875 -29.203125 L 11.171875 -24.03125 Z M 15.734375 -24.03125 "/></g></g></g><g fill="#000000" fill-opacity="1"><g transform="translate(116.904788, 89.853626)"><g><path d="M 9.234375 0.4375 C 6.117188 0.4375 3.984375 -0.597656 2.828125 -2.671875 C 1.671875 -4.742188 1.09375 -7.703125 1.09375 -11.546875 C 1.09375 -14.703125 1.503906 -17.125 2.328125 -18.8125 C 3.160156 -20.5 4.304688 -21.734375 5.765625 -22.515625 C 7.234375 -23.304688 9.472656 -24.179688 12.484375 -25.140625 L 15.125 -26.015625 L 15.125 -30.140625 C 15.125 -31.203125 14.910156 -32.015625 14.484375 -32.578125 C 14.066406 -33.148438 13.566406 -33.4375 12.984375 -33.4375 C 12.460938 -33.4375 12.007812 -33.195312 11.625 -32.71875 C 11.25 -32.25 11.0625 -31.609375 11.0625 -30.796875 L 11.0625 -28.375 L 1.703125 -28.375 L 1.703125 -29.703125 C 1.703125 -33.660156 2.628906 -36.484375 4.484375 -38.171875 C 6.335938 -39.859375 9.351562 -40.703125 13.53125 -40.703125 C 16.863281 -40.703125 19.578125 -39.828125 21.671875 -38.078125 C 23.765625 -36.335938 24.8125 -33.875 24.8125 -30.6875 L 24.8125 0 L 15.234375 0 L 15.234375 -4.78125 C 14.753906 -3.132812 13.992188 -1.851562 12.953125 -0.9375 C 11.910156 -0.0195312 10.671875 0.4375 9.234375 0.4375 Z M 13.03125 -7.046875 C 13.769531 -7.046875 14.289062 -7.347656 14.59375 -7.953125 C 14.90625 -8.554688 15.0625 -9.296875 15.0625 -10.171875 L 15.0625 -21.390625 C 13.632812 -20.835938 12.582031 -20.140625 11.90625 -19.296875 C 11.226562 -18.460938 10.890625 -17.289062 10.890625 -15.78125 L 10.890625 -10.609375 C 10.890625 -8.234375 11.601562 -7.046875 13.03125 -7.046875 Z M 13.03125 -7.046875 "/></g></g></g><g fill="#000000" fill-opacity="1"><g transform="translate(143.467863, 89.853626)"><g><path d="M 14.03125 0.4375 C 9.625 0.4375 6.445312 -0.675781 4.5 -2.90625 C 2.5625 -5.144531 1.59375 -8.578125 1.59375 -13.203125 L 1.59375 -25.625 C 1.59375 -29.113281 1.96875 -31.945312 2.71875 -34.125 C 3.46875 -36.3125 4.734375 -37.953125 6.515625 -39.046875 C 8.296875 -40.148438 10.765625 -40.703125 13.921875 -40.703125 C 17.359375 -40.703125 20.160156 -39.800781 22.328125 -38 C 24.492188 -36.207031 25.578125 -33.695312 25.578125 -30.46875 L 25.578125 -24.3125 L 15.78125 -24.3125 L 15.78125 -29.96875 C 15.78125 -31.03125 15.632812 -31.847656 15.34375 -32.421875 C 15.050781 -32.992188 14.484375 -33.28125 13.640625 -33.28125 C 12.066406 -33.28125 11.28125 -32.160156 11.28125 -29.921875 L 11.28125 -10.390625 C 11.28125 -9.472656 11.472656 -8.691406 11.859375 -8.046875 C 12.242188 -7.410156 12.816406 -7.09375 13.578125 -7.09375 C 14.347656 -7.09375 14.925781 -7.40625 15.3125 -8.03125 C 15.695312 -8.65625 15.875 -9.460938 15.84375 -10.453125 L 15.78125 -17.21875 L 25.578125 -17.21875 L 25.578125 -10.171875 C 25.578125 -6.867188 24.503906 -4.273438 22.359375 -2.390625 C 20.210938 -0.503906 17.4375 0.4375 14.03125 0.4375 Z M 14.03125 0.4375 "/></g></g></g><g fill="#000000" fill-opacity="1"><g transform="translate(170.470905, 89.853626)"><g><path d="M 10.234375 0.4375 C 7.703125 0.4375 5.957031 -0.09375 5 -1.15625 C 4.050781 -2.21875 3.578125 -3.921875 3.578125 -6.265625 L 3.578125 -31.40625 L 0.875 -31.40625 L 0.875 -38.71875 L 3.578125 -38.71875 L 3.578125 -47.25 L 12.921875 -47.25 L 12.921875 -38.71875 L 15.671875 -38.71875 L 15.671875 -31.40625 L 12.921875 -31.40625 L 12.921875 -8.796875 C 12.921875 -8.097656 12.972656 -7.582031 13.078125 -7.25 C 13.191406 -6.925781 13.488281 -6.765625 13.96875 -6.765625 C 14.332031 -6.765625 14.679688 -6.78125 15.015625 -6.8125 C 15.347656 -6.851562 15.566406 -6.875 15.671875 -6.875 L 15.671875 -0.28125 C 15.117188 -0.132812 14.320312 0.0195312 13.28125 0.1875 C 12.238281 0.351562 11.222656 0.4375 10.234375 0.4375 Z M 10.234375 0.4375 "/></g></g></g><g fill="#000000" fill-opacity="1"><g transform="translate(187.244691, 89.853626)"><g><path d="M 1.484375 0 L 1.484375 -8.03125 L 11.109375 -8.03125 L 11.109375 0 Z M 1.484375 0 "/></g></g></g><g fill="#000000" fill-opacity="1"><g transform="translate(199.838776, 89.853626)"><g><path d="M 2.96875 -42.953125 L 2.96875 -49.671875 L 12.59375 -49.671875 L 12.59375 -42.953125 Z M 5 4.734375 C 2.914062 4.734375 1.5625 4.492188 0.9375 4.015625 L 0.9375 -2.421875 C 1.113281 -2.347656 1.40625 -2.3125 1.8125 -2.3125 C 2.289062 -2.3125 2.601562 -2.46875 2.75 -2.78125 C 2.894531 -3.09375 2.96875 -3.5625 2.96875 -4.1875 L 2.96875 -40.265625 L 12.59375 -40.265625 L 12.59375 -4.453125 C 12.59375 -1.484375 11.988281 0.785156 10.78125 2.359375 C 9.570312 3.941406 7.644531 4.734375 5 4.734375 Z M 5 4.734375 "/></g></g></g><g fill="#000000" fill-opacity="1"><g transform="translate(214.302722, 89.853626)"><g><path d="M 12.984375 0.4375 C 5.023438 0.4375 1.046875 -3.59375 1.046875 -11.65625 L 1.09375 -14.84375 L 10.71875 -14.84375 L 10.78125 -10.125 C 10.78125 -9.164062 10.960938 -8.4375 11.328125 -7.9375 C 11.691406 -7.445312 12.296875 -7.203125 13.140625 -7.203125 C 14.421875 -7.203125 15.0625 -8.25 15.0625 -10.34375 C 15.0625 -11.882812 14.757812 -13.09375 14.15625 -13.96875 C 13.550781 -14.851562 12.59375 -15.789062 11.28125 -16.78125 L 6.15625 -20.734375 C 4.394531 -22.085938 3.128906 -23.488281 2.359375 -24.9375 C 1.585938 -26.382812 1.203125 -28.429688 1.203125 -31.078125 C 1.203125 -33.128906 1.742188 -34.878906 2.828125 -36.328125 C 3.910156 -37.773438 5.347656 -38.863281 7.140625 -39.59375 C 8.941406 -40.332031 10.941406 -40.703125 13.140625 -40.703125 C 20.953125 -40.703125 24.859375 -36.816406 24.859375 -29.046875 L 24.859375 -28.265625 L 14.90625 -28.265625 L 14.90625 -29.8125 C 14.90625 -30.757812 14.75 -31.570312 14.4375 -32.25 C 14.125 -32.9375 13.601562 -33.28125 12.875 -33.28125 C 12.207031 -33.28125 11.695312 -33.085938 11.34375 -32.703125 C 11 -32.316406 10.828125 -31.789062 10.828125 -31.125 C 10.828125 -29.664062 11.398438 -28.53125 12.546875 -27.71875 L 18.484375 -23.375 C 20.609375 -21.800781 22.238281 -20.085938 23.375 -18.234375 C 24.507812 -16.378906 25.078125 -14.039062 25.078125 -11.21875 C 25.078125 -7.476562 24.015625 -4.597656 21.890625 -2.578125 C 19.765625 -0.566406 16.796875 0.4375 12.984375 0.4375 Z M 12.984375 0.4375 "/></g></g></g></svg>